%TF.GenerationSoftware,KiCad,Pcbnew,8.0.5*%
%TF.CreationDate,2026-08-25T19:42:51+03:00*%
%TF.ProjectId,z80,7a38302e-6b69-4636-9164-5f7063625858,rev?*%
%TF.SameCoordinates,Original*%
%TF.FileFunction,Legend,Top*%
%TF.FilePolarity,Positive*%
%FSLAX46Y46*%
G04 Gerber Fmt 4.6, Leading zero omitted, Abs format (unit mm)*
G04 Created by KiCad (PCBNEW 8.0.5) date 2026-08-25 19:42:51*
%MOMM*%
%LPD*%
G01*
G04 APERTURE LIST*
%ADD10C,0.200000*%
%ADD11C,0.600000*%
%ADD12C,0.150000*%
%ADD13C,0.120000*%
G04 APERTURE END LIST*
D10*
X151235071Y-55734628D02*
X151949357Y-55234628D01*
X151235071Y-54877485D02*
X152735071Y-54877485D01*
X152735071Y-54877485D02*
X152735071Y-55448914D01*
X152735071Y-55448914D02*
X152663642Y-55591771D01*
X152663642Y-55591771D02*
X152592214Y-55663200D01*
X152592214Y-55663200D02*
X152449357Y-55734628D01*
X152449357Y-55734628D02*
X152235071Y-55734628D01*
X152235071Y-55734628D02*
X152092214Y-55663200D01*
X152092214Y-55663200D02*
X152020785Y-55591771D01*
X152020785Y-55591771D02*
X151949357Y-55448914D01*
X151949357Y-55448914D02*
X151949357Y-54877485D01*
X152020785Y-56377485D02*
X152020785Y-56877485D01*
X151235071Y-57091771D02*
X151235071Y-56377485D01*
X151235071Y-56377485D02*
X152735071Y-56377485D01*
X152735071Y-56377485D02*
X152735071Y-57091771D01*
X151306500Y-57663200D02*
X151235071Y-57877486D01*
X151235071Y-57877486D02*
X151235071Y-58234628D01*
X151235071Y-58234628D02*
X151306500Y-58377486D01*
X151306500Y-58377486D02*
X151377928Y-58448914D01*
X151377928Y-58448914D02*
X151520785Y-58520343D01*
X151520785Y-58520343D02*
X151663642Y-58520343D01*
X151663642Y-58520343D02*
X151806500Y-58448914D01*
X151806500Y-58448914D02*
X151877928Y-58377486D01*
X151877928Y-58377486D02*
X151949357Y-58234628D01*
X151949357Y-58234628D02*
X152020785Y-57948914D01*
X152020785Y-57948914D02*
X152092214Y-57806057D01*
X152092214Y-57806057D02*
X152163642Y-57734628D01*
X152163642Y-57734628D02*
X152306500Y-57663200D01*
X152306500Y-57663200D02*
X152449357Y-57663200D01*
X152449357Y-57663200D02*
X152592214Y-57734628D01*
X152592214Y-57734628D02*
X152663642Y-57806057D01*
X152663642Y-57806057D02*
X152735071Y-57948914D01*
X152735071Y-57948914D02*
X152735071Y-58306057D01*
X152735071Y-58306057D02*
X152663642Y-58520343D01*
X152020785Y-59163199D02*
X152020785Y-59663199D01*
X151235071Y-59877485D02*
X151235071Y-59163199D01*
X151235071Y-59163199D02*
X152735071Y-59163199D01*
X152735071Y-59163199D02*
X152735071Y-59877485D01*
X152735071Y-60306057D02*
X152735071Y-61163200D01*
X151235071Y-60734628D02*
X152735071Y-60734628D01*
D11*
X128601704Y-94665580D02*
X128601704Y-97998914D01*
X128601704Y-97998914D02*
X123601704Y-94665580D01*
X123601704Y-94665580D02*
X123601704Y-97998914D01*
X126458847Y-100617961D02*
X126696942Y-100141771D01*
X126696942Y-100141771D02*
X126935038Y-99903676D01*
X126935038Y-99903676D02*
X127411228Y-99665580D01*
X127411228Y-99665580D02*
X127649323Y-99665580D01*
X127649323Y-99665580D02*
X128125514Y-99903676D01*
X128125514Y-99903676D02*
X128363609Y-100141771D01*
X128363609Y-100141771D02*
X128601704Y-100617961D01*
X128601704Y-100617961D02*
X128601704Y-101570342D01*
X128601704Y-101570342D02*
X128363609Y-102046533D01*
X128363609Y-102046533D02*
X128125514Y-102284628D01*
X128125514Y-102284628D02*
X127649323Y-102522723D01*
X127649323Y-102522723D02*
X127411228Y-102522723D01*
X127411228Y-102522723D02*
X126935038Y-102284628D01*
X126935038Y-102284628D02*
X126696942Y-102046533D01*
X126696942Y-102046533D02*
X126458847Y-101570342D01*
X126458847Y-101570342D02*
X126458847Y-100617961D01*
X126458847Y-100617961D02*
X126220752Y-100141771D01*
X126220752Y-100141771D02*
X125982657Y-99903676D01*
X125982657Y-99903676D02*
X125506466Y-99665580D01*
X125506466Y-99665580D02*
X124554085Y-99665580D01*
X124554085Y-99665580D02*
X124077895Y-99903676D01*
X124077895Y-99903676D02*
X123839800Y-100141771D01*
X123839800Y-100141771D02*
X123601704Y-100617961D01*
X123601704Y-100617961D02*
X123601704Y-101570342D01*
X123601704Y-101570342D02*
X123839800Y-102046533D01*
X123839800Y-102046533D02*
X124077895Y-102284628D01*
X124077895Y-102284628D02*
X124554085Y-102522723D01*
X124554085Y-102522723D02*
X125506466Y-102522723D01*
X125506466Y-102522723D02*
X125982657Y-102284628D01*
X125982657Y-102284628D02*
X126220752Y-102046533D01*
X126220752Y-102046533D02*
X126458847Y-101570342D01*
X128601704Y-105617962D02*
X128601704Y-106094152D01*
X128601704Y-106094152D02*
X128363609Y-106570343D01*
X128363609Y-106570343D02*
X128125514Y-106808438D01*
X128125514Y-106808438D02*
X127649323Y-107046533D01*
X127649323Y-107046533D02*
X126696942Y-107284628D01*
X126696942Y-107284628D02*
X125506466Y-107284628D01*
X125506466Y-107284628D02*
X124554085Y-107046533D01*
X124554085Y-107046533D02*
X124077895Y-106808438D01*
X124077895Y-106808438D02*
X123839800Y-106570343D01*
X123839800Y-106570343D02*
X123601704Y-106094152D01*
X123601704Y-106094152D02*
X123601704Y-105617962D01*
X123601704Y-105617962D02*
X123839800Y-105141771D01*
X123839800Y-105141771D02*
X124077895Y-104903676D01*
X124077895Y-104903676D02*
X124554085Y-104665581D01*
X124554085Y-104665581D02*
X125506466Y-104427485D01*
X125506466Y-104427485D02*
X126696942Y-104427485D01*
X126696942Y-104427485D02*
X127649323Y-104665581D01*
X127649323Y-104665581D02*
X128125514Y-104903676D01*
X128125514Y-104903676D02*
X128363609Y-105141771D01*
X128363609Y-105141771D02*
X128601704Y-105617962D01*
X124077895Y-112284629D02*
X123839800Y-112046533D01*
X123839800Y-112046533D02*
X123601704Y-111332248D01*
X123601704Y-111332248D02*
X123601704Y-110856057D01*
X123601704Y-110856057D02*
X123839800Y-110141771D01*
X123839800Y-110141771D02*
X124315990Y-109665581D01*
X124315990Y-109665581D02*
X124792180Y-109427486D01*
X124792180Y-109427486D02*
X125744561Y-109189390D01*
X125744561Y-109189390D02*
X126458847Y-109189390D01*
X126458847Y-109189390D02*
X127411228Y-109427486D01*
X127411228Y-109427486D02*
X127887419Y-109665581D01*
X127887419Y-109665581D02*
X128363609Y-110141771D01*
X128363609Y-110141771D02*
X128601704Y-110856057D01*
X128601704Y-110856057D02*
X128601704Y-111332248D01*
X128601704Y-111332248D02*
X128363609Y-112046533D01*
X128363609Y-112046533D02*
X128125514Y-112284629D01*
X123601704Y-114427486D02*
X128601704Y-114427486D01*
X128601704Y-114427486D02*
X128601704Y-116332248D01*
X128601704Y-116332248D02*
X128363609Y-116808438D01*
X128363609Y-116808438D02*
X128125514Y-117046533D01*
X128125514Y-117046533D02*
X127649323Y-117284629D01*
X127649323Y-117284629D02*
X126935038Y-117284629D01*
X126935038Y-117284629D02*
X126458847Y-117046533D01*
X126458847Y-117046533D02*
X126220752Y-116808438D01*
X126220752Y-116808438D02*
X125982657Y-116332248D01*
X125982657Y-116332248D02*
X125982657Y-114427486D01*
X128601704Y-119427486D02*
X124554085Y-119427486D01*
X124554085Y-119427486D02*
X124077895Y-119665581D01*
X124077895Y-119665581D02*
X123839800Y-119903676D01*
X123839800Y-119903676D02*
X123601704Y-120379867D01*
X123601704Y-120379867D02*
X123601704Y-121332248D01*
X123601704Y-121332248D02*
X123839800Y-121808438D01*
X123839800Y-121808438D02*
X124077895Y-122046533D01*
X124077895Y-122046533D02*
X124554085Y-122284629D01*
X124554085Y-122284629D02*
X128601704Y-122284629D01*
D12*
X118808780Y-82503676D02*
X118094495Y-82503676D01*
X118094495Y-82503676D02*
X117951638Y-82456057D01*
X117951638Y-82456057D02*
X117856400Y-82360819D01*
X117856400Y-82360819D02*
X117808780Y-82217962D01*
X117808780Y-82217962D02*
X117808780Y-82122724D01*
X117808780Y-83503676D02*
X117808780Y-82932248D01*
X117808780Y-83217962D02*
X118808780Y-83217962D01*
X118808780Y-83217962D02*
X118665923Y-83122724D01*
X118665923Y-83122724D02*
X118570685Y-83027486D01*
X118570685Y-83027486D02*
X118523066Y-82932248D01*
X118475447Y-84360819D02*
X117808780Y-84360819D01*
X118856400Y-84122724D02*
X118142114Y-83884629D01*
X118142114Y-83884629D02*
X118142114Y-84503676D01*
X139057142Y-91388019D02*
X138723809Y-90911828D01*
X138485714Y-91388019D02*
X138485714Y-90388019D01*
X138485714Y-90388019D02*
X138866666Y-90388019D01*
X138866666Y-90388019D02*
X138961904Y-90435638D01*
X138961904Y-90435638D02*
X139009523Y-90483257D01*
X139009523Y-90483257D02*
X139057142Y-90578495D01*
X139057142Y-90578495D02*
X139057142Y-90721352D01*
X139057142Y-90721352D02*
X139009523Y-90816590D01*
X139009523Y-90816590D02*
X138961904Y-90864209D01*
X138961904Y-90864209D02*
X138866666Y-90911828D01*
X138866666Y-90911828D02*
X138485714Y-90911828D01*
X139438095Y-90483257D02*
X139485714Y-90435638D01*
X139485714Y-90435638D02*
X139580952Y-90388019D01*
X139580952Y-90388019D02*
X139819047Y-90388019D01*
X139819047Y-90388019D02*
X139914285Y-90435638D01*
X139914285Y-90435638D02*
X139961904Y-90483257D01*
X139961904Y-90483257D02*
X140009523Y-90578495D01*
X140009523Y-90578495D02*
X140009523Y-90673733D01*
X140009523Y-90673733D02*
X139961904Y-90816590D01*
X139961904Y-90816590D02*
X139390476Y-91388019D01*
X139390476Y-91388019D02*
X140009523Y-91388019D01*
X140961904Y-91388019D02*
X140390476Y-91388019D01*
X140676190Y-91388019D02*
X140676190Y-90388019D01*
X140676190Y-90388019D02*
X140580952Y-90530876D01*
X140580952Y-90530876D02*
X140485714Y-90626114D01*
X140485714Y-90626114D02*
X140390476Y-90673733D01*
X141750742Y-96468019D02*
X141417409Y-95991828D01*
X141179314Y-96468019D02*
X141179314Y-95468019D01*
X141179314Y-95468019D02*
X141560266Y-95468019D01*
X141560266Y-95468019D02*
X141655504Y-95515638D01*
X141655504Y-95515638D02*
X141703123Y-95563257D01*
X141703123Y-95563257D02*
X141750742Y-95658495D01*
X141750742Y-95658495D02*
X141750742Y-95801352D01*
X141750742Y-95801352D02*
X141703123Y-95896590D01*
X141703123Y-95896590D02*
X141655504Y-95944209D01*
X141655504Y-95944209D02*
X141560266Y-95991828D01*
X141560266Y-95991828D02*
X141179314Y-95991828D01*
X142131695Y-95563257D02*
X142179314Y-95515638D01*
X142179314Y-95515638D02*
X142274552Y-95468019D01*
X142274552Y-95468019D02*
X142512647Y-95468019D01*
X142512647Y-95468019D02*
X142607885Y-95515638D01*
X142607885Y-95515638D02*
X142655504Y-95563257D01*
X142655504Y-95563257D02*
X142703123Y-95658495D01*
X142703123Y-95658495D02*
X142703123Y-95753733D01*
X142703123Y-95753733D02*
X142655504Y-95896590D01*
X142655504Y-95896590D02*
X142084076Y-96468019D01*
X142084076Y-96468019D02*
X142703123Y-96468019D01*
X143322171Y-95468019D02*
X143417409Y-95468019D01*
X143417409Y-95468019D02*
X143512647Y-95515638D01*
X143512647Y-95515638D02*
X143560266Y-95563257D01*
X143560266Y-95563257D02*
X143607885Y-95658495D01*
X143607885Y-95658495D02*
X143655504Y-95848971D01*
X143655504Y-95848971D02*
X143655504Y-96087066D01*
X143655504Y-96087066D02*
X143607885Y-96277542D01*
X143607885Y-96277542D02*
X143560266Y-96372780D01*
X143560266Y-96372780D02*
X143512647Y-96420400D01*
X143512647Y-96420400D02*
X143417409Y-96468019D01*
X143417409Y-96468019D02*
X143322171Y-96468019D01*
X143322171Y-96468019D02*
X143226933Y-96420400D01*
X143226933Y-96420400D02*
X143179314Y-96372780D01*
X143179314Y-96372780D02*
X143131695Y-96277542D01*
X143131695Y-96277542D02*
X143084076Y-96087066D01*
X143084076Y-96087066D02*
X143084076Y-95848971D01*
X143084076Y-95848971D02*
X143131695Y-95658495D01*
X143131695Y-95658495D02*
X143179314Y-95563257D01*
X143179314Y-95563257D02*
X143226933Y-95515638D01*
X143226933Y-95515638D02*
X143322171Y-95468019D01*
X143208780Y-57175105D02*
X144208780Y-57175105D01*
X144208780Y-57175105D02*
X144208780Y-57413200D01*
X144208780Y-57413200D02*
X144161161Y-57556057D01*
X144161161Y-57556057D02*
X144065923Y-57651295D01*
X144065923Y-57651295D02*
X143970685Y-57698914D01*
X143970685Y-57698914D02*
X143780209Y-57746533D01*
X143780209Y-57746533D02*
X143637352Y-57746533D01*
X143637352Y-57746533D02*
X143446876Y-57698914D01*
X143446876Y-57698914D02*
X143351638Y-57651295D01*
X143351638Y-57651295D02*
X143256400Y-57556057D01*
X143256400Y-57556057D02*
X143208780Y-57413200D01*
X143208780Y-57413200D02*
X143208780Y-57175105D01*
X144113542Y-58127486D02*
X144161161Y-58175105D01*
X144161161Y-58175105D02*
X144208780Y-58270343D01*
X144208780Y-58270343D02*
X144208780Y-58508438D01*
X144208780Y-58508438D02*
X144161161Y-58603676D01*
X144161161Y-58603676D02*
X144113542Y-58651295D01*
X144113542Y-58651295D02*
X144018304Y-58698914D01*
X144018304Y-58698914D02*
X143923066Y-58698914D01*
X143923066Y-58698914D02*
X143780209Y-58651295D01*
X143780209Y-58651295D02*
X143208780Y-58079867D01*
X143208780Y-58079867D02*
X143208780Y-58698914D01*
X141750742Y-99008019D02*
X141417409Y-98531828D01*
X141179314Y-99008019D02*
X141179314Y-98008019D01*
X141179314Y-98008019D02*
X141560266Y-98008019D01*
X141560266Y-98008019D02*
X141655504Y-98055638D01*
X141655504Y-98055638D02*
X141703123Y-98103257D01*
X141703123Y-98103257D02*
X141750742Y-98198495D01*
X141750742Y-98198495D02*
X141750742Y-98341352D01*
X141750742Y-98341352D02*
X141703123Y-98436590D01*
X141703123Y-98436590D02*
X141655504Y-98484209D01*
X141655504Y-98484209D02*
X141560266Y-98531828D01*
X141560266Y-98531828D02*
X141179314Y-98531828D01*
X142131695Y-98103257D02*
X142179314Y-98055638D01*
X142179314Y-98055638D02*
X142274552Y-98008019D01*
X142274552Y-98008019D02*
X142512647Y-98008019D01*
X142512647Y-98008019D02*
X142607885Y-98055638D01*
X142607885Y-98055638D02*
X142655504Y-98103257D01*
X142655504Y-98103257D02*
X142703123Y-98198495D01*
X142703123Y-98198495D02*
X142703123Y-98293733D01*
X142703123Y-98293733D02*
X142655504Y-98436590D01*
X142655504Y-98436590D02*
X142084076Y-99008019D01*
X142084076Y-99008019D02*
X142703123Y-99008019D01*
X143560266Y-98341352D02*
X143560266Y-99008019D01*
X143322171Y-97960400D02*
X143084076Y-98674685D01*
X143084076Y-98674685D02*
X143703123Y-98674685D01*
X141750742Y-93928019D02*
X141417409Y-93451828D01*
X141179314Y-93928019D02*
X141179314Y-92928019D01*
X141179314Y-92928019D02*
X141560266Y-92928019D01*
X141560266Y-92928019D02*
X141655504Y-92975638D01*
X141655504Y-92975638D02*
X141703123Y-93023257D01*
X141703123Y-93023257D02*
X141750742Y-93118495D01*
X141750742Y-93118495D02*
X141750742Y-93261352D01*
X141750742Y-93261352D02*
X141703123Y-93356590D01*
X141703123Y-93356590D02*
X141655504Y-93404209D01*
X141655504Y-93404209D02*
X141560266Y-93451828D01*
X141560266Y-93451828D02*
X141179314Y-93451828D01*
X142131695Y-93023257D02*
X142179314Y-92975638D01*
X142179314Y-92975638D02*
X142274552Y-92928019D01*
X142274552Y-92928019D02*
X142512647Y-92928019D01*
X142512647Y-92928019D02*
X142607885Y-92975638D01*
X142607885Y-92975638D02*
X142655504Y-93023257D01*
X142655504Y-93023257D02*
X142703123Y-93118495D01*
X142703123Y-93118495D02*
X142703123Y-93213733D01*
X142703123Y-93213733D02*
X142655504Y-93356590D01*
X142655504Y-93356590D02*
X142084076Y-93928019D01*
X142084076Y-93928019D02*
X142703123Y-93928019D01*
X143084076Y-93023257D02*
X143131695Y-92975638D01*
X143131695Y-92975638D02*
X143226933Y-92928019D01*
X143226933Y-92928019D02*
X143465028Y-92928019D01*
X143465028Y-92928019D02*
X143560266Y-92975638D01*
X143560266Y-92975638D02*
X143607885Y-93023257D01*
X143607885Y-93023257D02*
X143655504Y-93118495D01*
X143655504Y-93118495D02*
X143655504Y-93213733D01*
X143655504Y-93213733D02*
X143607885Y-93356590D01*
X143607885Y-93356590D02*
X143036457Y-93928019D01*
X143036457Y-93928019D02*
X143655504Y-93928019D01*
X118872580Y-49922066D02*
X118158295Y-49922066D01*
X118158295Y-49922066D02*
X118015438Y-49874447D01*
X118015438Y-49874447D02*
X117920200Y-49779209D01*
X117920200Y-49779209D02*
X117872580Y-49636352D01*
X117872580Y-49636352D02*
X117872580Y-49541114D01*
X118872580Y-50874447D02*
X118872580Y-50398257D01*
X118872580Y-50398257D02*
X118396390Y-50350638D01*
X118396390Y-50350638D02*
X118444009Y-50398257D01*
X118444009Y-50398257D02*
X118491628Y-50493495D01*
X118491628Y-50493495D02*
X118491628Y-50731590D01*
X118491628Y-50731590D02*
X118444009Y-50826828D01*
X118444009Y-50826828D02*
X118396390Y-50874447D01*
X118396390Y-50874447D02*
X118301152Y-50922066D01*
X118301152Y-50922066D02*
X118063057Y-50922066D01*
X118063057Y-50922066D02*
X117967819Y-50874447D01*
X117967819Y-50874447D02*
X117920200Y-50826828D01*
X117920200Y-50826828D02*
X117872580Y-50731590D01*
X117872580Y-50731590D02*
X117872580Y-50493495D01*
X117872580Y-50493495D02*
X117920200Y-50398257D01*
X117920200Y-50398257D02*
X117967819Y-50350638D01*
X148641500Y-68111532D02*
X148689119Y-67968675D01*
X148689119Y-67968675D02*
X148689119Y-67730580D01*
X148689119Y-67730580D02*
X148641500Y-67635342D01*
X148641500Y-67635342D02*
X148593880Y-67587723D01*
X148593880Y-67587723D02*
X148498642Y-67540104D01*
X148498642Y-67540104D02*
X148403404Y-67540104D01*
X148403404Y-67540104D02*
X148308166Y-67587723D01*
X148308166Y-67587723D02*
X148260547Y-67635342D01*
X148260547Y-67635342D02*
X148212928Y-67730580D01*
X148212928Y-67730580D02*
X148165309Y-67921056D01*
X148165309Y-67921056D02*
X148117690Y-68016294D01*
X148117690Y-68016294D02*
X148070071Y-68063913D01*
X148070071Y-68063913D02*
X147974833Y-68111532D01*
X147974833Y-68111532D02*
X147879595Y-68111532D01*
X147879595Y-68111532D02*
X147784357Y-68063913D01*
X147784357Y-68063913D02*
X147736738Y-68016294D01*
X147736738Y-68016294D02*
X147689119Y-67921056D01*
X147689119Y-67921056D02*
X147689119Y-67682961D01*
X147689119Y-67682961D02*
X147736738Y-67540104D01*
X147689119Y-67206770D02*
X148689119Y-66968675D01*
X148689119Y-66968675D02*
X147974833Y-66778199D01*
X147974833Y-66778199D02*
X148689119Y-66587723D01*
X148689119Y-66587723D02*
X147689119Y-66349628D01*
X148689119Y-65444866D02*
X148689119Y-66016294D01*
X148689119Y-65730580D02*
X147689119Y-65730580D01*
X147689119Y-65730580D02*
X147831976Y-65825818D01*
X147831976Y-65825818D02*
X147927214Y-65921056D01*
X147927214Y-65921056D02*
X147974833Y-66016294D01*
X139447095Y-135898019D02*
X139447095Y-136707542D01*
X139447095Y-136707542D02*
X139494714Y-136802780D01*
X139494714Y-136802780D02*
X139542333Y-136850400D01*
X139542333Y-136850400D02*
X139637571Y-136898019D01*
X139637571Y-136898019D02*
X139828047Y-136898019D01*
X139828047Y-136898019D02*
X139923285Y-136850400D01*
X139923285Y-136850400D02*
X139970904Y-136802780D01*
X139970904Y-136802780D02*
X140018523Y-136707542D01*
X140018523Y-136707542D02*
X140018523Y-135898019D01*
X140923285Y-136231352D02*
X140923285Y-136898019D01*
X140685190Y-135850400D02*
X140447095Y-136564685D01*
X140447095Y-136564685D02*
X141066142Y-136564685D01*
X138416933Y-107167780D02*
X138369314Y-107215400D01*
X138369314Y-107215400D02*
X138226457Y-107263019D01*
X138226457Y-107263019D02*
X138131219Y-107263019D01*
X138131219Y-107263019D02*
X137988362Y-107215400D01*
X137988362Y-107215400D02*
X137893124Y-107120161D01*
X137893124Y-107120161D02*
X137845505Y-107024923D01*
X137845505Y-107024923D02*
X137797886Y-106834447D01*
X137797886Y-106834447D02*
X137797886Y-106691590D01*
X137797886Y-106691590D02*
X137845505Y-106501114D01*
X137845505Y-106501114D02*
X137893124Y-106405876D01*
X137893124Y-106405876D02*
X137988362Y-106310638D01*
X137988362Y-106310638D02*
X138131219Y-106263019D01*
X138131219Y-106263019D02*
X138226457Y-106263019D01*
X138226457Y-106263019D02*
X138369314Y-106310638D01*
X138369314Y-106310638D02*
X138416933Y-106358257D01*
X139321695Y-106263019D02*
X138845505Y-106263019D01*
X138845505Y-106263019D02*
X138797886Y-106739209D01*
X138797886Y-106739209D02*
X138845505Y-106691590D01*
X138845505Y-106691590D02*
X138940743Y-106643971D01*
X138940743Y-106643971D02*
X139178838Y-106643971D01*
X139178838Y-106643971D02*
X139274076Y-106691590D01*
X139274076Y-106691590D02*
X139321695Y-106739209D01*
X139321695Y-106739209D02*
X139369314Y-106834447D01*
X139369314Y-106834447D02*
X139369314Y-107072542D01*
X139369314Y-107072542D02*
X139321695Y-107167780D01*
X139321695Y-107167780D02*
X139274076Y-107215400D01*
X139274076Y-107215400D02*
X139178838Y-107263019D01*
X139178838Y-107263019D02*
X138940743Y-107263019D01*
X138940743Y-107263019D02*
X138845505Y-107215400D01*
X138845505Y-107215400D02*
X138797886Y-107167780D01*
D13*
%TO.C,R21*%
X143500336Y-90160400D02*
X143954464Y-90160400D01*
X143500336Y-91630400D02*
X143954464Y-91630400D01*
%TO.C,R20*%
X138874464Y-95240400D02*
X138420336Y-95240400D01*
X138874464Y-96710400D02*
X138420336Y-96710400D01*
%TO.C,D2*%
X142135200Y-59428600D02*
X142135200Y-63488600D01*
X144405200Y-59428600D02*
X142135200Y-59428600D01*
X144405200Y-63488600D02*
X144405200Y-59428600D01*
%TO.C,R24*%
X138874464Y-97780400D02*
X138420336Y-97780400D01*
X138874464Y-99250400D02*
X138420336Y-99250400D01*
%TO.C,R22*%
X138874464Y-92700400D02*
X138420336Y-92700400D01*
X138874464Y-94170400D02*
X138420336Y-94170400D01*
%TO.C,SW1*%
X145604300Y-62918200D02*
X145604300Y-63438200D01*
X145604300Y-70118200D02*
X145604300Y-70638200D01*
X146114300Y-62918200D02*
X145604300Y-62918200D01*
X146114300Y-63438200D02*
X145604300Y-63438200D01*
X146114300Y-70118200D02*
X145604300Y-70118200D01*
X146114300Y-70638200D02*
X145604300Y-70638200D01*
X148944300Y-63438200D02*
X148714300Y-63438200D01*
X148944300Y-63438200D02*
X148944300Y-63978200D01*
X148944300Y-65078200D02*
X148944300Y-68478200D01*
X148944300Y-69578200D02*
X148944300Y-70118200D01*
X148944300Y-70118200D02*
X148714300Y-70118200D01*
X150814300Y-62918200D02*
X148714300Y-62918200D01*
X150814300Y-70638200D02*
X148714300Y-70638200D01*
%TO.C,U4*%
X139209000Y-135443200D02*
G75*
G02*
X141209000Y-135443200I1000000J0D01*
G01*
X149159000Y-135503200D02*
X149159000Y-84463200D01*
X149159000Y-84463200D02*
X131259000Y-84463200D01*
X146669000Y-135443200D02*
X146669000Y-84523200D01*
X146669000Y-84523200D02*
X133749000Y-84523200D01*
X141209000Y-135443200D02*
X146669000Y-135443200D01*
X133749000Y-135443200D02*
X139209000Y-135443200D01*
X133749000Y-84523200D02*
X133749000Y-135443200D01*
X131259000Y-135503200D02*
X149159000Y-135503200D01*
X131259000Y-84463200D02*
X131259000Y-135503200D01*
%TO.C,C5*%
X138908652Y-107940400D02*
X138386148Y-107940400D01*
X138908652Y-109410400D02*
X138386148Y-109410400D01*
%TD*%
M02*
