M48
; DRILL file {KiCad 8.0.5} date 2026-08-25T19:42:48+0300
; FORMAT={-:-/ absolute / inch / decimal}
; #@! TF.CreationDate,2026-08-25T19:42:48+03:00
; #@! TF.GenerationSoftware,Kicad,Pcbnew,8.0.5
; #@! TF.FileFunction,Plated,1,2,PTH
FMAT,2
INCH
; #@! TA.AperFunction,Plated,PTH,ViaDrill
T1C0.0118
; #@! TA.AperFunction,Plated,PTH,ComponentDrill
T2C0.0315
; #@! TA.AperFunction,Plated,PTH,ComponentDrill
T3C0.0390
; #@! TA.AperFunction,Plated,PTH,ComponentDrill
T4C0.0512
%
G90
G05
T1
X4.6796Y-5.2836
X4.7086Y-2.0786
X4.7086Y-3.3836
X4.7586Y-4.2286
X4.7866Y-4.3341
X4.8111Y-4.1311
X4.8551Y-3.824
X4.8916Y-4.1316
X4.9246Y-5.1026
X4.9546Y-5.0746
X4.9796Y-5.0396
X4.9836Y-3.4046
X4.9836Y-3.4536
X4.9836Y-4.0286
X5.01Y-3.9411
X5.0266Y-5.0376
X5.0336Y-3.4536
X5.3336Y-3.4786
X5.443Y-4.8716
X5.4586Y-3.2786
X5.4991Y-4.7776
T2
X4.8086Y-2.2286
X4.8086Y-2.3286
X4.8086Y-2.4286
X4.8086Y-2.5286
X4.8086Y-2.6286
X4.8086Y-2.7286
X4.8086Y-2.8286
X4.8086Y-2.9286
X4.8086Y-3.0286
X4.8086Y-3.1286
X4.9086Y-2.2286
X4.9086Y-2.3286
X4.9086Y-2.4286
X4.9086Y-2.5286
X4.9086Y-2.6286
X4.9086Y-2.7286
X4.9086Y-2.8286
X4.9086Y-2.9286
X4.9086Y-3.0286
X4.9086Y-3.1286
X5.0086Y-2.2286
X5.0086Y-2.3286
X5.0086Y-2.4286
X5.0086Y-2.5286
X5.0086Y-2.6286
X5.0086Y-2.7286
X5.0086Y-2.8286
X5.0086Y-2.9286
X5.0086Y-3.0286
X5.0086Y-3.1286
X5.1086Y-2.2286
X5.1086Y-2.3286
X5.1086Y-2.4286
X5.1086Y-2.5286
X5.1086Y-2.6286
X5.1086Y-2.7286
X5.1086Y-2.8286
X5.1086Y-2.9286
X5.1086Y-3.0286
X5.1086Y-3.1286
X5.2086Y-2.2286
X5.2086Y-2.3286
X5.2086Y-2.4286
X5.2086Y-2.5286
X5.2086Y-2.6286
X5.2086Y-2.7286
X5.2086Y-2.8286
X5.2086Y-2.9286
X5.2086Y-3.0286
X5.2086Y-3.1286
X5.22Y-3.38
X5.22Y-3.48
X5.22Y-3.58
X5.22Y-3.68
X5.22Y-3.78
X5.22Y-3.88
X5.22Y-3.98
X5.22Y-4.08
X5.22Y-4.18
X5.22Y-4.28
X5.22Y-4.38
X5.22Y-4.48
X5.22Y-4.58
X5.22Y-4.68
X5.22Y-4.78
X5.22Y-4.88
X5.22Y-4.98
X5.22Y-5.08
X5.22Y-5.18
X5.22Y-5.28
X5.3086Y-2.2286
X5.3086Y-2.3286
X5.3086Y-2.4286
X5.3086Y-2.5286
X5.3086Y-2.6286
X5.3086Y-2.7286
X5.3086Y-2.8286
X5.3086Y-2.9286
X5.3086Y-3.0286
X5.3086Y-3.1286
X5.4086Y-2.2286
X5.4086Y-2.3286
X5.4086Y-2.4286
X5.4086Y-2.5286
X5.4086Y-2.6286
X5.4086Y-2.7286
X5.4086Y-2.8286
X5.4086Y-2.9286
X5.4086Y-3.0286
X5.4086Y-3.1286
X5.5086Y-2.2286
X5.5086Y-2.3286
X5.5086Y-2.4286
X5.5086Y-2.5286
X5.5086Y-2.6286
X5.5086Y-2.7286
X5.5086Y-2.8286
X5.5086Y-2.9286
X5.5086Y-3.0286
X5.5086Y-3.1286
X5.82Y-3.38
X5.82Y-3.48
X5.82Y-3.58
X5.82Y-3.68
X5.82Y-3.78
X5.82Y-3.88
X5.82Y-3.98
X5.82Y-4.08
X5.82Y-4.18
X5.82Y-4.28
X5.82Y-4.38
X5.82Y-4.48
X5.82Y-4.58
X5.82Y-4.68
X5.82Y-4.78
X5.82Y-4.88
X5.82Y-4.98
X5.82Y-5.08
X5.82Y-5.18
X5.82Y-5.28
T3
X5.9021Y-2.5405
X5.9021Y-2.7176
T4
X5.8041Y-2.4913
X5.8041Y-2.7673
M30
