M48
; DRILL file {KiCad 8.0.5} date 2026-08-25T21:19:08+0300
; FORMAT={-:-/ absolute / inch / decimal}
; #@! TF.CreationDate,2026-08-25T21:19:08+03:00
; #@! TF.GenerationSoftware,Kicad,Pcbnew,8.0.5
; #@! TF.FileFunction,Plated,1,2,PTH
FMAT,2
INCH
; #@! TA.AperFunction,Plated,PTH,ViaDrill
T1C0.0118
; #@! TA.AperFunction,Plated,PTH,ComponentDrill
T2C0.0315
; #@! TA.AperFunction,Plated,PTH,ComponentDrill
T3C0.0390
; #@! TA.AperFunction,Plated,PTH,ComponentDrill
T4C0.0512
%
G90
G05
T1
X4.9633Y-4.174
X4.9673Y-2.32
X4.9703Y-3.622
X5.0574Y-2.9136
X5.0603Y-3.916
X5.1633Y-3.62
X5.1956Y-3.8867
X5.2333Y-4.018
X5.3288Y-3.8465
T2
X5.2903Y-2.27
X5.2903Y-2.37
X5.2903Y-2.47
X5.2903Y-2.57
X5.2903Y-2.67
X5.2903Y-2.77
X5.2903Y-2.87
X5.2903Y-2.97
X5.2903Y-3.07
X5.2903Y-3.17
X5.2903Y-3.27
X5.2903Y-3.37
X5.3903Y-2.27
X5.3903Y-2.37
X5.3903Y-2.47
X5.3903Y-2.57
X5.3903Y-2.67
X5.3903Y-2.77
X5.3903Y-2.87
X5.3903Y-2.97
X5.3903Y-3.07
X5.3903Y-3.17
X5.3903Y-3.27
X5.3903Y-3.37
X5.4903Y-2.27
X5.4903Y-2.37
X5.4903Y-2.47
X5.4903Y-2.57
X5.4903Y-2.67
X5.4903Y-2.77
X5.4903Y-2.87
X5.4903Y-2.97
X5.4903Y-3.07
X5.4903Y-3.17
X5.4903Y-3.27
X5.4903Y-3.37
X5.5403Y-3.62
X5.5403Y-3.72
X5.5403Y-3.82
X5.5403Y-3.92
X5.5403Y-4.02
X5.5403Y-4.12
X5.5403Y-4.22
X5.5403Y-4.32
X5.5403Y-4.42
X5.5403Y-4.52
X5.5403Y-4.62
X5.5403Y-4.72
X5.5403Y-4.82
X5.5403Y-4.92
X5.5403Y-5.02
X5.5403Y-5.12
X5.5403Y-5.22
X5.5403Y-5.32
X5.5403Y-5.42
X5.5403Y-5.52
X5.5903Y-2.27
X5.5903Y-2.37
X5.5903Y-2.47
X5.5903Y-2.57
X5.5903Y-2.67
X5.5903Y-2.77
X5.5903Y-2.87
X5.5903Y-2.97
X5.5903Y-3.07
X5.5903Y-3.17
X5.5903Y-3.27
X5.5903Y-3.37
X5.6903Y-2.27
X5.6903Y-2.37
X5.6903Y-2.47
X5.6903Y-2.57
X5.6903Y-2.67
X5.6903Y-2.77
X5.6903Y-2.87
X5.6903Y-2.97
X5.6903Y-3.07
X5.6903Y-3.17
X5.6903Y-3.27
X5.6903Y-3.37
X5.7903Y-2.27
X5.7903Y-2.37
X5.7903Y-2.47
X5.7903Y-2.57
X5.7903Y-2.67
X5.7903Y-2.77
X5.7903Y-2.87
X5.7903Y-2.97
X5.7903Y-3.07
X5.7903Y-3.17
X5.7903Y-3.27
X5.7903Y-3.37
X5.8903Y-2.27
X5.8903Y-2.37
X5.8903Y-2.47
X5.8903Y-2.57
X5.8903Y-2.67
X5.8903Y-2.77
X5.8903Y-2.87
X5.8903Y-2.97
X5.8903Y-3.07
X5.8903Y-3.17
X5.8903Y-3.27
X5.8903Y-3.37
X6.1403Y-3.62
X6.1403Y-3.72
X6.1403Y-3.82
X6.1403Y-3.92
X6.1403Y-4.02
X6.1403Y-4.12
X6.1403Y-4.22
X6.1403Y-4.32
X6.1403Y-4.42
X6.1403Y-4.52
X6.1403Y-4.62
X6.1403Y-4.72
X6.1403Y-4.82
X6.1403Y-4.92
X6.1403Y-5.02
X6.1403Y-5.12
X6.1403Y-5.22
X6.1403Y-5.32
X6.1403Y-5.42
X6.1403Y-5.52
T3
X6.1899Y-2.7889
X6.1899Y-2.9661
T4
X6.0919Y-2.7397
X6.0919Y-3.0157
M30
