%TF.GenerationSoftware,KiCad,Pcbnew,8.0.5*%
%TF.CreationDate,2026-08-25T21:19:10+03:00*%
%TF.ProjectId,6502,36353032-2e6b-4696-9361-645f70636258,rev?*%
%TF.SameCoordinates,Original*%
%TF.FileFunction,Copper,L1,Top*%
%TF.FilePolarity,Positive*%
%FSLAX46Y46*%
G04 Gerber Fmt 4.6, Leading zero omitted, Abs format (unit mm)*
G04 Created by KiCad (PCBNEW 8.0.5) date 2026-08-25 21:19:10*
%MOMM*%
%LPD*%
G01*
G04 APERTURE LIST*
G04 Aperture macros list*
%AMRoundRect*
0 Rectangle with rounded corners*
0 $1 Rounding radius*
0 $2 $3 $4 $5 $6 $7 $8 $9 X,Y pos of 4 corners*
0 Add a 4 corners polygon primitive as box body*
4,1,4,$2,$3,$4,$5,$6,$7,$8,$9,$2,$3,0*
0 Add four circle primitives for the rounded corners*
1,1,$1+$1,$2,$3*
1,1,$1+$1,$4,$5*
1,1,$1+$1,$6,$7*
1,1,$1+$1,$8,$9*
0 Add four rect primitives between the rounded corners*
20,1,$1+$1,$2,$3,$4,$5,0*
20,1,$1+$1,$4,$5,$6,$7,0*
20,1,$1+$1,$6,$7,$8,$9,0*
20,1,$1+$1,$8,$9,$2,$3,0*%
G04 Aperture macros list end*
%TA.AperFunction,ComponentPad*%
%ADD10O,1.600000X1.600000*%
%TD*%
%TA.AperFunction,SMDPad,CuDef*%
%ADD11RoundRect,0.250000X-0.337500X-0.475000X0.337500X-0.475000X0.337500X0.475000X-0.337500X0.475000X0*%
%TD*%
%TA.AperFunction,ConnectorPad*%
%ADD12R,4.000000X2.000000*%
%TD*%
%TA.AperFunction,ComponentPad*%
%ADD13C,2.100000*%
%TD*%
%TA.AperFunction,ComponentPad*%
%ADD14C,1.750000*%
%TD*%
%TA.AperFunction,SMDPad,CuDef*%
%ADD15RoundRect,0.250000X-0.350000X-0.450000X0.350000X-0.450000X0.350000X0.450000X-0.350000X0.450000X0*%
%TD*%
%TA.AperFunction,ComponentPad*%
%ADD16R,1.600000X1.600000*%
%TD*%
%TA.AperFunction,ViaPad*%
%ADD17C,0.600000*%
%TD*%
%TA.AperFunction,Conductor*%
%ADD18C,0.300000*%
%TD*%
%TA.AperFunction,Conductor*%
%ADD19C,0.800000*%
%TD*%
%TA.AperFunction,Conductor*%
%ADD20C,1.000000*%
%TD*%
G04 APERTURE END LIST*
D10*
%TO.P,,*%
%TO.N,*%
X136914000Y-83058000D03*
%TD*%
%TO.P,,*%
%TO.N,*%
X134374000Y-65278000D03*
%TD*%
%TO.P,,*%
%TO.N,*%
X136914000Y-85598000D03*
%TD*%
%TO.P,,*%
%TO.N,*%
X149614000Y-57658000D03*
%TD*%
%TO.P,,*%
%TO.N,*%
X136914000Y-70358000D03*
%TD*%
%TO.P,,*%
%TO.N,*%
X136914000Y-77978000D03*
%TD*%
%TO.P,,*%
%TO.N,*%
X139454000Y-67818000D03*
%TD*%
%TO.P,,*%
%TO.N,*%
X139454000Y-80518000D03*
%TD*%
%TO.P,,*%
%TO.N,*%
X141994000Y-57658000D03*
%TD*%
%TO.P,,*%
%TO.N,*%
X144534000Y-72898000D03*
%TD*%
%TO.P,,*%
%TO.N,*%
X141994000Y-60198000D03*
%TD*%
D11*
%TO.P,C4,1*%
%TO.N,N/C*%
X152132500Y-144576800D03*
%TO.P,C4,2*%
X154207500Y-144576800D03*
%TD*%
D10*
%TO.P,,*%
%TO.N,*%
X134374000Y-60198000D03*
%TD*%
%TO.P,,*%
%TO.N,*%
X149614000Y-75438000D03*
%TD*%
%TO.P,,*%
%TO.N,*%
X147074000Y-57658000D03*
%TD*%
D12*
%TO.P,J12,2,Pin_2*%
%TO.N,N/C*%
X122994800Y-91998800D03*
%TO.P,J12,4,Pin_4*%
X122994800Y-94538800D03*
%TO.P,J12,6,Pin_6*%
X122994800Y-97078800D03*
%TO.P,J12,8,Pin_8*%
X122994800Y-99618800D03*
%TO.P,J12,10,Pin_10*%
X122994800Y-102158800D03*
%TO.P,J12,12,Pin_12*%
X122994800Y-104698800D03*
%TO.P,J12,14,Pin_14*%
X122994800Y-107238800D03*
%TO.P,J12,16,Pin_16*%
X122994800Y-109778800D03*
%TO.P,J12,18,Pin_18*%
X122994800Y-112318800D03*
%TO.P,J12,20,Pin_20*%
X122994800Y-114858800D03*
%TO.P,J12,22,Pin_22*%
X122994800Y-117398800D03*
%TO.P,J12,24,Pin_24*%
X122994800Y-119938800D03*
%TO.P,J12,26,Pin_26*%
X122994800Y-122478800D03*
%TO.P,J12,28,Pin_28*%
X122994800Y-125018800D03*
%TO.P,J12,30,Pin_30*%
X122994800Y-127558800D03*
%TO.P,J12,32,Pin_32*%
X122994800Y-130098800D03*
%TO.P,J12,34,Pin_34*%
X122994800Y-132638800D03*
%TO.P,J12,36,Pin_36*%
X122994800Y-135178800D03*
%TO.P,J12,38,Pin_38*%
X122994800Y-137718800D03*
%TO.P,J12,40,Pin_40*%
X122994800Y-140258800D03*
%TD*%
D10*
%TO.P,,*%
%TO.N,*%
X136914000Y-65278000D03*
%TD*%
%TO.P,,*%
%TO.N,*%
X144534000Y-60198000D03*
%TD*%
%TO.P,,*%
%TO.N,*%
X141994000Y-75438000D03*
%TD*%
%TO.P,,*%
%TO.N,*%
X149614000Y-85598000D03*
%TD*%
%TO.P,,*%
%TO.N,*%
X134374000Y-83058000D03*
%TD*%
%TO.P,,*%
%TO.N,*%
X144534000Y-75438000D03*
%TD*%
%TO.P,,*%
%TO.N,*%
X134374000Y-85598000D03*
%TD*%
%TO.P,,*%
%TO.N,*%
X134374000Y-62738000D03*
%TD*%
%TO.P,,*%
%TO.N,*%
X149614000Y-80518000D03*
%TD*%
%TO.P,,*%
%TO.N,*%
X141994000Y-72898000D03*
%TD*%
%TO.P,,*%
%TO.N,*%
X149614000Y-60198000D03*
%TD*%
D13*
%TO.P,SW2,*%
%TO.N,*%
X154733300Y-69588600D03*
X154733300Y-76598600D03*
D14*
%TO.P,SW2,1,1*%
%TO.N,N/C*%
X157223300Y-70838600D03*
%TO.P,SW2,2,2*%
X157223300Y-75338600D03*
%TD*%
D10*
%TO.P,,*%
%TO.N,*%
X144534000Y-67818000D03*
%TD*%
%TO.P,,*%
%TO.N,*%
X139454000Y-72898000D03*
%TD*%
%TO.P,,*%
%TO.N,*%
X134374000Y-80518000D03*
%TD*%
D15*
%TO.P,R19,1*%
%TO.N,N/C*%
X149884000Y-137668000D03*
%TO.P,R19,2*%
X151884000Y-137668000D03*
%TD*%
D10*
%TO.P,,*%
%TO.N,*%
X141994000Y-62738000D03*
%TD*%
%TO.P,,*%
%TO.N,*%
X139454000Y-83058000D03*
%TD*%
%TO.P,,*%
%TO.N,*%
X144534000Y-80518000D03*
%TD*%
%TO.P,,*%
%TO.N,*%
X136914000Y-57658000D03*
%TD*%
%TO.P,,*%
%TO.N,*%
X147074000Y-65278000D03*
%TD*%
%TO.P,,*%
%TO.N,*%
X144534000Y-65278000D03*
%TD*%
%TO.P,,*%
%TO.N,*%
X136914000Y-75438000D03*
%TD*%
%TO.P,,*%
%TO.N,*%
X139454000Y-75438000D03*
%TD*%
%TO.P,,*%
%TO.N,*%
X149614000Y-65278000D03*
%TD*%
%TO.P,,*%
%TO.N,*%
X134374000Y-75438000D03*
%TD*%
%TO.P,,*%
%TO.N,*%
X136914000Y-62738000D03*
%TD*%
%TO.P,,*%
%TO.N,*%
X139454000Y-60198000D03*
%TD*%
%TO.P,,*%
%TO.N,*%
X134374000Y-70358000D03*
%TD*%
%TO.P,,*%
%TO.N,*%
X147074000Y-67818000D03*
%TD*%
%TO.P,,*%
%TO.N,*%
X141994000Y-80518000D03*
%TD*%
%TO.P,,*%
%TO.N,*%
X149614000Y-83058000D03*
%TD*%
D15*
%TO.P,R17,1*%
%TO.N,N/C*%
X149884000Y-127508000D03*
%TO.P,R17,2*%
X151884000Y-127508000D03*
%TD*%
D10*
%TO.P,,*%
%TO.N,*%
X147074000Y-70358000D03*
%TD*%
%TO.P,,*%
%TO.N,*%
X147074000Y-83058000D03*
%TD*%
%TO.P,,*%
%TO.N,*%
X141994000Y-77978000D03*
%TD*%
%TO.P,,*%
%TO.N,*%
X134374000Y-57658000D03*
%TD*%
%TO.P,,*%
%TO.N,*%
X144534000Y-83058000D03*
%TD*%
D16*
%TO.P,U3,1,VSS*%
%TO.N,N/C*%
X155964000Y-140208000D03*
D10*
%TO.P,U3,2,RDY*%
X155964000Y-137668000D03*
%TO.P,U3,3,F1(OUT)*%
X155964000Y-135128000D03*
%TO.P,U3,4,~{IRQ}*%
X155964000Y-132588000D03*
%TO.P,U3,5*%
X155964000Y-130048000D03*
%TO.P,U3,6,~{NMI}*%
X155964000Y-127508000D03*
%TO.P,U3,7,SYNC*%
X155964000Y-124968000D03*
%TO.P,U3,8,VCC*%
X155964000Y-122428000D03*
%TO.P,U3,9,AB0*%
X155964000Y-119888000D03*
%TO.P,U3,10,AB1*%
X155964000Y-117348000D03*
%TO.P,U3,11,AB2*%
X155964000Y-114808000D03*
%TO.P,U3,12,AB3*%
X155964000Y-112268000D03*
%TO.P,U3,13,AB4*%
X155964000Y-109728000D03*
%TO.P,U3,14,AB5*%
X155964000Y-107188000D03*
%TO.P,U3,15,AB6*%
X155964000Y-104648000D03*
%TO.P,U3,16,AB7*%
X155964000Y-102108000D03*
%TO.P,U3,17,AB8*%
X155964000Y-99568000D03*
%TO.P,U3,18,AB9*%
X155964000Y-97028000D03*
%TO.P,U3,19,AB10*%
X155964000Y-94488000D03*
%TO.P,U3,20,AB11*%
X155964000Y-91948000D03*
%TO.P,U3,21,VSS*%
X140724000Y-91948000D03*
%TO.P,U3,22,AB12*%
X140724000Y-94488000D03*
%TO.P,U3,23,AB13*%
X140724000Y-97028000D03*
%TO.P,U3,24,AB14*%
X140724000Y-99568000D03*
%TO.P,U3,25,AB15*%
X140724000Y-102108000D03*
%TO.P,U3,26,DB7*%
X140724000Y-104648000D03*
%TO.P,U3,27,DB6*%
X140724000Y-107188000D03*
%TO.P,U3,28,DB5*%
X140724000Y-109728000D03*
%TO.P,U3,29,DB4*%
X140724000Y-112268000D03*
%TO.P,U3,30,DB3*%
X140724000Y-114808000D03*
%TO.P,U3,31,DB2*%
X140724000Y-117348000D03*
%TO.P,U3,32,DB1*%
X140724000Y-119888000D03*
%TO.P,U3,33,DB0*%
X140724000Y-122428000D03*
%TO.P,U3,34,R/~{W}*%
X140724000Y-124968000D03*
%TO.P,U3,35*%
X140724000Y-127508000D03*
%TO.P,U3,36*%
X140724000Y-130048000D03*
%TO.P,U3,37,F0(IN)*%
X140724000Y-132588000D03*
%TO.P,U3,38,S.O.*%
X140724000Y-135128000D03*
%TO.P,U3,39,F2(OUT)*%
X140724000Y-137668000D03*
%TO.P,U3,40,~{RES}*%
X140724000Y-140208000D03*
%TD*%
%TO.P,,*%
%TO.N,*%
X139454000Y-70358000D03*
%TD*%
%TO.P,,*%
%TO.N,*%
X149614000Y-62738000D03*
%TD*%
%TO.P,,*%
%TO.N,*%
X147074000Y-60198000D03*
%TD*%
%TO.P,,*%
%TO.N,*%
X139454000Y-85598000D03*
%TD*%
%TO.P,,*%
%TO.N,*%
X144534000Y-77978000D03*
%TD*%
%TO.P,,*%
%TO.N,*%
X149614000Y-72898000D03*
%TD*%
%TO.P,,*%
%TO.N,*%
X141994000Y-70358000D03*
%TD*%
%TO.P,,*%
%TO.N,*%
X147074000Y-75438000D03*
%TD*%
D15*
%TO.P,R18,1*%
%TO.N,N/C*%
X149884000Y-132588000D03*
%TO.P,R18,2*%
X151884000Y-132588000D03*
%TD*%
D10*
%TO.P,,*%
%TO.N,*%
X139454000Y-77978000D03*
%TD*%
%TO.P,,*%
%TO.N,*%
X139454000Y-65278000D03*
%TD*%
%TO.P,,*%
%TO.N,*%
X144534000Y-62738000D03*
%TD*%
%TO.P,,*%
%TO.N,*%
X144534000Y-70358000D03*
%TD*%
%TO.P,,*%
%TO.N,*%
X147074000Y-80518000D03*
%TD*%
D12*
%TO.P,J18,2,Pin_2*%
%TO.N,N/C*%
X122944000Y-58928000D03*
%TO.P,J18,4,Pin_4*%
X122944000Y-61468000D03*
%TO.P,J18,6,Pin_6*%
X122944000Y-64008000D03*
%TO.P,J18,8,Pin_8*%
X122944000Y-66548000D03*
%TO.P,J18,10,Pin_10*%
X122944000Y-69088000D03*
%TO.P,J18,12,Pin_12*%
X122944000Y-71628000D03*
%TO.P,J18,14,Pin_14*%
X122944000Y-74168000D03*
%TO.P,J18,16,Pin_16*%
X122944000Y-76708000D03*
%TO.P,J18,18,Pin_18*%
X122944000Y-79248000D03*
%TO.P,J18,20,Pin_20*%
X122944000Y-81788000D03*
%TD*%
D10*
%TO.P,,*%
%TO.N,*%
X147074000Y-62738000D03*
%TD*%
%TO.P,,*%
%TO.N,*%
X139454000Y-57658000D03*
%TD*%
%TO.P,,*%
%TO.N,*%
X134374000Y-72898000D03*
%TD*%
%TO.P,,*%
%TO.N,*%
X136914000Y-67818000D03*
%TD*%
%TO.P,,*%
%TO.N,*%
X136914000Y-72898000D03*
%TD*%
%TO.P,,*%
%TO.N,*%
X147074000Y-85598000D03*
%TD*%
%TO.P,,*%
%TO.N,*%
X141994000Y-67818000D03*
%TD*%
%TO.P,,*%
%TO.N,*%
X149614000Y-70358000D03*
%TD*%
%TO.P,,*%
%TO.N,*%
X147074000Y-72898000D03*
%TD*%
%TO.P,,*%
%TO.N,*%
X134374000Y-67818000D03*
%TD*%
%TO.P,,*%
%TO.N,*%
X136914000Y-80518000D03*
%TD*%
%TO.P,,*%
%TO.N,*%
X136914000Y-60198000D03*
%TD*%
%TO.P,,*%
%TO.N,*%
X141994000Y-65278000D03*
%TD*%
%TO.P,,*%
%TO.N,*%
X141994000Y-83058000D03*
%TD*%
%TO.P,,*%
%TO.N,*%
X144534000Y-57658000D03*
%TD*%
%TO.P,,*%
%TO.N,*%
X139454000Y-62738000D03*
%TD*%
%TO.P,,*%
%TO.N,*%
X149614000Y-77978000D03*
%TD*%
%TO.P,,*%
%TO.N,*%
X149614000Y-67818000D03*
%TD*%
%TO.P,,*%
%TO.N,*%
X134374000Y-77978000D03*
%TD*%
%TO.P,,*%
%TO.N,*%
X147074000Y-77978000D03*
%TD*%
%TO.P,,*%
%TO.N,*%
X144534000Y-85598000D03*
%TD*%
%TO.P,,*%
%TO.N,*%
X141994000Y-85598000D03*
%TD*%
D17*
%TO.N,*%
X135351575Y-97700775D03*
X131148200Y-91948000D03*
X126169800Y-58928000D03*
X132926525Y-102057525D03*
X128532000Y-99466400D03*
X126246000Y-91998800D03*
X126068200Y-106019600D03*
X131968917Y-98722533D03*
X128457000Y-74005000D03*
%TD*%
D18*
%TO.N,*%
X129708400Y-64422400D02*
X129708400Y-99915600D01*
X122944000Y-61468000D02*
X126754000Y-61468000D01*
X126754000Y-61468000D02*
X129708400Y-64422400D01*
X129708400Y-99915600D02*
X127465200Y-102158800D01*
X127465200Y-102158800D02*
X122994800Y-102158800D01*
X158910400Y-132181600D02*
X155964000Y-135128000D01*
X130945000Y-94462600D02*
X137701400Y-87706200D01*
X132279400Y-107188000D02*
X129688600Y-109778800D01*
X158910400Y-89281000D02*
X158910400Y-132181600D01*
X130945000Y-99949000D02*
X130945000Y-94462600D01*
X157335600Y-87706200D02*
X158910400Y-89281000D01*
X137701400Y-87706200D02*
X157335600Y-87706200D01*
X126195200Y-104698800D02*
X130945000Y-99949000D01*
X140215254Y-138785600D02*
X132051400Y-138785600D01*
X132051400Y-138785600D02*
X128444600Y-135178800D01*
X128444600Y-135178800D02*
X122994800Y-135178800D01*
X140247654Y-138818000D02*
X140215254Y-138785600D01*
X135351575Y-97700775D02*
X135351575Y-99670825D01*
X154059000Y-114808000D02*
X146846600Y-122020400D01*
X135351575Y-99670825D02*
X132964875Y-102057525D01*
X146846600Y-134974400D02*
X143003000Y-138818000D01*
X132964875Y-102057525D02*
X132926525Y-102057525D01*
X122994800Y-104698800D02*
X126195200Y-104698800D01*
X146846600Y-122020400D02*
X146846600Y-134974400D01*
X155964000Y-114808000D02*
X154059000Y-114808000D01*
X143003000Y-138818000D02*
X140247654Y-138818000D01*
X132553200Y-98268694D02*
X132553200Y-98319494D01*
X155964000Y-104648000D02*
X154059000Y-104648000D01*
X132203800Y-133858000D02*
X128444600Y-130098800D01*
X151884000Y-127508000D02*
X155964000Y-127508000D01*
X128379600Y-99618800D02*
X122994800Y-99618800D01*
X140724000Y-107188000D02*
X132279400Y-107188000D01*
X142672800Y-128658000D02*
X140247654Y-128658000D01*
X128094600Y-114858800D02*
X122994800Y-114858800D01*
X140247654Y-128658000D02*
X140240654Y-128651000D01*
X145576600Y-130427800D02*
X142146400Y-133858000D01*
X158410400Y-130141600D02*
X158410400Y-89593800D01*
X155964000Y-132588000D02*
X158410400Y-130141600D01*
X157869000Y-94766654D02*
X156345746Y-93243400D01*
X155964000Y-94488000D02*
X153551000Y-94488000D01*
X154186000Y-109728000D02*
X146211600Y-117702400D01*
X157869000Y-123063000D02*
X157869000Y-94766654D01*
X132350000Y-98522694D02*
X132168756Y-98522694D01*
X156345746Y-93243400D02*
X138844400Y-93243400D01*
X155964000Y-124968000D02*
X157869000Y-123063000D01*
X142201294Y-88620600D02*
X132553200Y-98268694D01*
X128532000Y-99466400D02*
X128379600Y-99618800D01*
X128444600Y-130098800D02*
X122994800Y-130098800D01*
X144280000Y-127050800D02*
X142672800Y-128658000D01*
X146211600Y-133094800D02*
X142984600Y-136321800D01*
X157437200Y-88620600D02*
X142201294Y-88620600D01*
X142146400Y-133858000D02*
X132203800Y-133858000D01*
X132076800Y-128651000D02*
X128444600Y-125018800D01*
X129688600Y-109778800D02*
X122994800Y-109778800D01*
X138844400Y-93243400D02*
X126068200Y-106019600D01*
X130583800Y-117348000D02*
X128094600Y-114858800D01*
X140724000Y-117348000D02*
X130583800Y-117348000D01*
X132127600Y-136321800D02*
X128444600Y-132638800D01*
X142984600Y-136321800D02*
X132127600Y-136321800D01*
X155964000Y-109728000D02*
X154186000Y-109728000D01*
X128444600Y-132638800D02*
X122994800Y-132638800D01*
X158410400Y-89593800D02*
X157437200Y-88620600D01*
X153551000Y-94488000D02*
X144280000Y-103759000D01*
X146211600Y-117702400D02*
X146211600Y-133094800D01*
X145576600Y-113130400D02*
X145576600Y-130427800D01*
X132553200Y-98319494D02*
X132350000Y-98522694D01*
X140240654Y-128651000D02*
X132076800Y-128651000D01*
X151884000Y-132588000D02*
X155964000Y-132588000D01*
X128444600Y-125018800D02*
X122994800Y-125018800D01*
X132168756Y-98522694D02*
X131968917Y-98722533D01*
X154059000Y-104648000D02*
X145576600Y-113130400D01*
X144280000Y-103759000D02*
X144280000Y-127050800D01*
X141286894Y-123698000D02*
X142756000Y-122228894D01*
X128444600Y-137718800D02*
X122994800Y-137718800D01*
X144941600Y-129869000D02*
X143467200Y-131343400D01*
X122994800Y-107238800D02*
X129783400Y-107238800D01*
X143264000Y-99441000D02*
X143264000Y-122428000D01*
X142241000Y-98418000D02*
X143264000Y-99441000D01*
X132203800Y-123698000D02*
X141286894Y-123698000D01*
X122994800Y-119938800D02*
X128444600Y-119938800D01*
X151884000Y-137668000D02*
X155964000Y-137668000D01*
X143772000Y-124841000D02*
X143772000Y-97536000D01*
X128444600Y-119938800D02*
X132203800Y-123698000D01*
X155964000Y-119888000D02*
X150117905Y-119888000D01*
X142451200Y-126161800D02*
X143772000Y-124841000D01*
X128444600Y-122478800D02*
X132127600Y-126161800D01*
X141608907Y-142367000D02*
X133092800Y-142367000D01*
X150117905Y-119888000D02*
X147481600Y-122524305D01*
X143772000Y-97536000D02*
X140724000Y-94488000D01*
X147481600Y-136494307D02*
X141608907Y-142367000D01*
X132229200Y-131343400D02*
X128444600Y-127558800D01*
X123045600Y-112268000D02*
X122994800Y-112318800D01*
X132127600Y-126161800D02*
X142451200Y-126161800D01*
X147481600Y-122524305D02*
X147481600Y-136494307D01*
X153805000Y-99568000D02*
X144941600Y-108431400D01*
X142756000Y-122228894D02*
X142756000Y-101600000D01*
X143467200Y-131343400D02*
X132229200Y-131343400D01*
X128444600Y-127558800D02*
X122994800Y-127558800D01*
X129783400Y-107238800D02*
X138604200Y-98418000D01*
X143264000Y-122428000D02*
X140724000Y-124968000D01*
X140724000Y-112268000D02*
X123045600Y-112268000D01*
X122994800Y-122478800D02*
X128444600Y-122478800D01*
X133092800Y-142367000D02*
X128444600Y-137718800D01*
X144941600Y-108431400D02*
X144941600Y-129869000D01*
X155964000Y-99568000D02*
X153805000Y-99568000D01*
X138604200Y-98418000D02*
X142241000Y-98418000D01*
X142756000Y-101600000D02*
X140724000Y-99568000D01*
X128250550Y-117424200D02*
X126119000Y-117424200D01*
X133254350Y-122428000D02*
X128250550Y-117424200D01*
X126119000Y-117424200D02*
X126093600Y-117398800D01*
X126093600Y-117398800D02*
X122994800Y-117398800D01*
X140724000Y-122428000D02*
X133254350Y-122428000D01*
X128406200Y-71970600D02*
X128406200Y-73954200D01*
X125523600Y-69088000D02*
X128406200Y-71970600D01*
X128406200Y-73954200D02*
X128457000Y-74005000D01*
X122944000Y-69088000D02*
X125523600Y-69088000D01*
D19*
X148331600Y-144690800D02*
X148496400Y-144526000D01*
X148496400Y-144526000D02*
X148496400Y-137845800D01*
X132876600Y-144690800D02*
X148331600Y-144690800D01*
X128444600Y-140258800D02*
X132876600Y-144690800D01*
X148496400Y-132588000D02*
X148496400Y-127558800D01*
X149884000Y-137668000D02*
X148674200Y-137668000D01*
X149004400Y-144526000D02*
X149055200Y-144576800D01*
X148496400Y-127558800D02*
X148496400Y-124079000D01*
X148496400Y-124079000D02*
X150147400Y-122428000D01*
X148496400Y-137845800D02*
X148496400Y-132588000D01*
D20*
X126169800Y-58928000D02*
X126169800Y-56210200D01*
D19*
X149884000Y-127508000D02*
X148547200Y-127508000D01*
X149884000Y-132588000D02*
X148496400Y-132588000D01*
X150147400Y-122428000D02*
X155964000Y-122428000D01*
X155964000Y-144145000D02*
X155532200Y-144576800D01*
X155532200Y-144576800D02*
X154207500Y-144576800D01*
D20*
X126169800Y-58928000D02*
X131148200Y-63906400D01*
D19*
X159672400Y-139242800D02*
X159672400Y-73287700D01*
D20*
X157223300Y-57469500D02*
X157223300Y-70838600D01*
D19*
X148496400Y-144526000D02*
X149004400Y-144526000D01*
X149055200Y-144576800D02*
X152132500Y-144576800D01*
X122994800Y-140258800D02*
X128444600Y-140258800D01*
X148674200Y-137668000D02*
X148496400Y-137845800D01*
X148547200Y-127508000D02*
X148496400Y-127558800D01*
X155964000Y-140208000D02*
X158707200Y-140208000D01*
X155964000Y-140208000D02*
X155964000Y-144145000D01*
X158707200Y-140208000D02*
X159672400Y-139242800D01*
D20*
X131148200Y-63906400D02*
X131148200Y-91948000D01*
X126169800Y-56210200D02*
X129192400Y-53187600D01*
X122994800Y-91998800D02*
X126246000Y-91998800D01*
X140673200Y-91998800D02*
X140724000Y-91948000D01*
X129192400Y-53187600D02*
X152941400Y-53187600D01*
D19*
X159672400Y-73287700D02*
X157223300Y-70838600D01*
D20*
X122944000Y-58928000D02*
X126169800Y-58928000D01*
X152941400Y-53187600D02*
X157223300Y-57469500D01*
%TD*%
M02*
