%TF.GenerationSoftware,KiCad,Pcbnew,8.0.5*%
%TF.CreationDate,2026-08-25T21:19:10+03:00*%
%TF.ProjectId,6502,36353032-2e6b-4696-9361-645f70636258,rev?*%
%TF.SameCoordinates,Original*%
%TF.FileFunction,Legend,Top*%
%TF.FilePolarity,Positive*%
%FSLAX46Y46*%
G04 Gerber Fmt 4.6, Leading zero omitted, Abs format (unit mm)*
G04 Created by KiCad (PCBNEW 8.0.5) date 2026-08-25 21:19:10*
%MOMM*%
%LPD*%
G01*
G04 APERTURE LIST*
%ADD10C,0.600000*%
%ADD11C,0.200000*%
%ADD12C,0.150000*%
%ADD13C,0.120000*%
G04 APERTURE END LIST*
D10*
X137499704Y-103576276D02*
X137499704Y-102623895D01*
X137499704Y-102623895D02*
X137261609Y-102147704D01*
X137261609Y-102147704D02*
X137023514Y-101909609D01*
X137023514Y-101909609D02*
X136309228Y-101433419D01*
X136309228Y-101433419D02*
X135356847Y-101195323D01*
X135356847Y-101195323D02*
X133452085Y-101195323D01*
X133452085Y-101195323D02*
X132975895Y-101433419D01*
X132975895Y-101433419D02*
X132737800Y-101671514D01*
X132737800Y-101671514D02*
X132499704Y-102147704D01*
X132499704Y-102147704D02*
X132499704Y-103100085D01*
X132499704Y-103100085D02*
X132737800Y-103576276D01*
X132737800Y-103576276D02*
X132975895Y-103814371D01*
X132975895Y-103814371D02*
X133452085Y-104052466D01*
X133452085Y-104052466D02*
X134642561Y-104052466D01*
X134642561Y-104052466D02*
X135118752Y-103814371D01*
X135118752Y-103814371D02*
X135356847Y-103576276D01*
X135356847Y-103576276D02*
X135594942Y-103100085D01*
X135594942Y-103100085D02*
X135594942Y-102147704D01*
X135594942Y-102147704D02*
X135356847Y-101671514D01*
X135356847Y-101671514D02*
X135118752Y-101433419D01*
X135118752Y-101433419D02*
X134642561Y-101195323D01*
X137499704Y-108576276D02*
X137499704Y-106195324D01*
X137499704Y-106195324D02*
X135118752Y-105957228D01*
X135118752Y-105957228D02*
X135356847Y-106195324D01*
X135356847Y-106195324D02*
X135594942Y-106671514D01*
X135594942Y-106671514D02*
X135594942Y-107861990D01*
X135594942Y-107861990D02*
X135356847Y-108338181D01*
X135356847Y-108338181D02*
X135118752Y-108576276D01*
X135118752Y-108576276D02*
X134642561Y-108814371D01*
X134642561Y-108814371D02*
X133452085Y-108814371D01*
X133452085Y-108814371D02*
X132975895Y-108576276D01*
X132975895Y-108576276D02*
X132737800Y-108338181D01*
X132737800Y-108338181D02*
X132499704Y-107861990D01*
X132499704Y-107861990D02*
X132499704Y-106671514D01*
X132499704Y-106671514D02*
X132737800Y-106195324D01*
X132737800Y-106195324D02*
X132975895Y-105957228D01*
X137499704Y-111909610D02*
X137499704Y-112385800D01*
X137499704Y-112385800D02*
X137261609Y-112861991D01*
X137261609Y-112861991D02*
X137023514Y-113100086D01*
X137023514Y-113100086D02*
X136547323Y-113338181D01*
X136547323Y-113338181D02*
X135594942Y-113576276D01*
X135594942Y-113576276D02*
X134404466Y-113576276D01*
X134404466Y-113576276D02*
X133452085Y-113338181D01*
X133452085Y-113338181D02*
X132975895Y-113100086D01*
X132975895Y-113100086D02*
X132737800Y-112861991D01*
X132737800Y-112861991D02*
X132499704Y-112385800D01*
X132499704Y-112385800D02*
X132499704Y-111909610D01*
X132499704Y-111909610D02*
X132737800Y-111433419D01*
X132737800Y-111433419D02*
X132975895Y-111195324D01*
X132975895Y-111195324D02*
X133452085Y-110957229D01*
X133452085Y-110957229D02*
X134404466Y-110719133D01*
X134404466Y-110719133D02*
X135594942Y-110719133D01*
X135594942Y-110719133D02*
X136547323Y-110957229D01*
X136547323Y-110957229D02*
X137023514Y-111195324D01*
X137023514Y-111195324D02*
X137261609Y-111433419D01*
X137261609Y-111433419D02*
X137499704Y-111909610D01*
X137023514Y-115481038D02*
X137261609Y-115719134D01*
X137261609Y-115719134D02*
X137499704Y-116195324D01*
X137499704Y-116195324D02*
X137499704Y-117385800D01*
X137499704Y-117385800D02*
X137261609Y-117861991D01*
X137261609Y-117861991D02*
X137023514Y-118100086D01*
X137023514Y-118100086D02*
X136547323Y-118338181D01*
X136547323Y-118338181D02*
X136071133Y-118338181D01*
X136071133Y-118338181D02*
X135356847Y-118100086D01*
X135356847Y-118100086D02*
X132499704Y-115242943D01*
X132499704Y-115242943D02*
X132499704Y-118338181D01*
X132975895Y-123338182D02*
X132737800Y-123100086D01*
X132737800Y-123100086D02*
X132499704Y-122385801D01*
X132499704Y-122385801D02*
X132499704Y-121909610D01*
X132499704Y-121909610D02*
X132737800Y-121195324D01*
X132737800Y-121195324D02*
X133213990Y-120719134D01*
X133213990Y-120719134D02*
X133690180Y-120481039D01*
X133690180Y-120481039D02*
X134642561Y-120242943D01*
X134642561Y-120242943D02*
X135356847Y-120242943D01*
X135356847Y-120242943D02*
X136309228Y-120481039D01*
X136309228Y-120481039D02*
X136785419Y-120719134D01*
X136785419Y-120719134D02*
X137261609Y-121195324D01*
X137261609Y-121195324D02*
X137499704Y-121909610D01*
X137499704Y-121909610D02*
X137499704Y-122385801D01*
X137499704Y-122385801D02*
X137261609Y-123100086D01*
X137261609Y-123100086D02*
X137023514Y-123338182D01*
X132499704Y-125481039D02*
X137499704Y-125481039D01*
X137499704Y-125481039D02*
X137499704Y-127385801D01*
X137499704Y-127385801D02*
X137261609Y-127861991D01*
X137261609Y-127861991D02*
X137023514Y-128100086D01*
X137023514Y-128100086D02*
X136547323Y-128338182D01*
X136547323Y-128338182D02*
X135833038Y-128338182D01*
X135833038Y-128338182D02*
X135356847Y-128100086D01*
X135356847Y-128100086D02*
X135118752Y-127861991D01*
X135118752Y-127861991D02*
X134880657Y-127385801D01*
X134880657Y-127385801D02*
X134880657Y-125481039D01*
X137499704Y-130481039D02*
X133452085Y-130481039D01*
X133452085Y-130481039D02*
X132975895Y-130719134D01*
X132975895Y-130719134D02*
X132737800Y-130957229D01*
X132737800Y-130957229D02*
X132499704Y-131433420D01*
X132499704Y-131433420D02*
X132499704Y-132385801D01*
X132499704Y-132385801D02*
X132737800Y-132861991D01*
X132737800Y-132861991D02*
X132975895Y-133100086D01*
X132975895Y-133100086D02*
X133452085Y-133338182D01*
X133452085Y-133338182D02*
X137499704Y-133338182D01*
D11*
X158228071Y-61867228D02*
X158942357Y-61367228D01*
X158228071Y-61010085D02*
X159728071Y-61010085D01*
X159728071Y-61010085D02*
X159728071Y-61581514D01*
X159728071Y-61581514D02*
X159656642Y-61724371D01*
X159656642Y-61724371D02*
X159585214Y-61795800D01*
X159585214Y-61795800D02*
X159442357Y-61867228D01*
X159442357Y-61867228D02*
X159228071Y-61867228D01*
X159228071Y-61867228D02*
X159085214Y-61795800D01*
X159085214Y-61795800D02*
X159013785Y-61724371D01*
X159013785Y-61724371D02*
X158942357Y-61581514D01*
X158942357Y-61581514D02*
X158942357Y-61010085D01*
X159013785Y-62510085D02*
X159013785Y-63010085D01*
X158228071Y-63224371D02*
X158228071Y-62510085D01*
X158228071Y-62510085D02*
X159728071Y-62510085D01*
X159728071Y-62510085D02*
X159728071Y-63224371D01*
X158299500Y-63795800D02*
X158228071Y-64010086D01*
X158228071Y-64010086D02*
X158228071Y-64367228D01*
X158228071Y-64367228D02*
X158299500Y-64510086D01*
X158299500Y-64510086D02*
X158370928Y-64581514D01*
X158370928Y-64581514D02*
X158513785Y-64652943D01*
X158513785Y-64652943D02*
X158656642Y-64652943D01*
X158656642Y-64652943D02*
X158799500Y-64581514D01*
X158799500Y-64581514D02*
X158870928Y-64510086D01*
X158870928Y-64510086D02*
X158942357Y-64367228D01*
X158942357Y-64367228D02*
X159013785Y-64081514D01*
X159013785Y-64081514D02*
X159085214Y-63938657D01*
X159085214Y-63938657D02*
X159156642Y-63867228D01*
X159156642Y-63867228D02*
X159299500Y-63795800D01*
X159299500Y-63795800D02*
X159442357Y-63795800D01*
X159442357Y-63795800D02*
X159585214Y-63867228D01*
X159585214Y-63867228D02*
X159656642Y-63938657D01*
X159656642Y-63938657D02*
X159728071Y-64081514D01*
X159728071Y-64081514D02*
X159728071Y-64438657D01*
X159728071Y-64438657D02*
X159656642Y-64652943D01*
X159013785Y-65295799D02*
X159013785Y-65795799D01*
X158228071Y-66010085D02*
X158228071Y-65295799D01*
X158228071Y-65295799D02*
X159728071Y-65295799D01*
X159728071Y-65295799D02*
X159728071Y-66010085D01*
X159728071Y-66438657D02*
X159728071Y-67295800D01*
X158228071Y-66867228D02*
X159728071Y-66867228D01*
D12*
X153003333Y-143256380D02*
X152955714Y-143304000D01*
X152955714Y-143304000D02*
X152812857Y-143351619D01*
X152812857Y-143351619D02*
X152717619Y-143351619D01*
X152717619Y-143351619D02*
X152574762Y-143304000D01*
X152574762Y-143304000D02*
X152479524Y-143208761D01*
X152479524Y-143208761D02*
X152431905Y-143113523D01*
X152431905Y-143113523D02*
X152384286Y-142923047D01*
X152384286Y-142923047D02*
X152384286Y-142780190D01*
X152384286Y-142780190D02*
X152431905Y-142589714D01*
X152431905Y-142589714D02*
X152479524Y-142494476D01*
X152479524Y-142494476D02*
X152574762Y-142399238D01*
X152574762Y-142399238D02*
X152717619Y-142351619D01*
X152717619Y-142351619D02*
X152812857Y-142351619D01*
X152812857Y-142351619D02*
X152955714Y-142399238D01*
X152955714Y-142399238D02*
X153003333Y-142446857D01*
X153860476Y-142684952D02*
X153860476Y-143351619D01*
X153622381Y-142304000D02*
X153384286Y-143018285D01*
X153384286Y-143018285D02*
X154003333Y-143018285D01*
X126436780Y-88636276D02*
X125722495Y-88636276D01*
X125722495Y-88636276D02*
X125579638Y-88588657D01*
X125579638Y-88588657D02*
X125484400Y-88493419D01*
X125484400Y-88493419D02*
X125436780Y-88350562D01*
X125436780Y-88350562D02*
X125436780Y-88255324D01*
X125436780Y-89636276D02*
X125436780Y-89064848D01*
X125436780Y-89350562D02*
X126436780Y-89350562D01*
X126436780Y-89350562D02*
X126293923Y-89255324D01*
X126293923Y-89255324D02*
X126198685Y-89160086D01*
X126198685Y-89160086D02*
X126151066Y-89064848D01*
X126341542Y-90017229D02*
X126389161Y-90064848D01*
X126389161Y-90064848D02*
X126436780Y-90160086D01*
X126436780Y-90160086D02*
X126436780Y-90398181D01*
X126436780Y-90398181D02*
X126389161Y-90493419D01*
X126389161Y-90493419D02*
X126341542Y-90541038D01*
X126341542Y-90541038D02*
X126246304Y-90588657D01*
X126246304Y-90588657D02*
X126151066Y-90588657D01*
X126151066Y-90588657D02*
X126008209Y-90541038D01*
X126008209Y-90541038D02*
X125436780Y-89969610D01*
X125436780Y-89969610D02*
X125436780Y-90588657D01*
X155950500Y-74421932D02*
X155998119Y-74279075D01*
X155998119Y-74279075D02*
X155998119Y-74040980D01*
X155998119Y-74040980D02*
X155950500Y-73945742D01*
X155950500Y-73945742D02*
X155902880Y-73898123D01*
X155902880Y-73898123D02*
X155807642Y-73850504D01*
X155807642Y-73850504D02*
X155712404Y-73850504D01*
X155712404Y-73850504D02*
X155617166Y-73898123D01*
X155617166Y-73898123D02*
X155569547Y-73945742D01*
X155569547Y-73945742D02*
X155521928Y-74040980D01*
X155521928Y-74040980D02*
X155474309Y-74231456D01*
X155474309Y-74231456D02*
X155426690Y-74326694D01*
X155426690Y-74326694D02*
X155379071Y-74374313D01*
X155379071Y-74374313D02*
X155283833Y-74421932D01*
X155283833Y-74421932D02*
X155188595Y-74421932D01*
X155188595Y-74421932D02*
X155093357Y-74374313D01*
X155093357Y-74374313D02*
X155045738Y-74326694D01*
X155045738Y-74326694D02*
X154998119Y-74231456D01*
X154998119Y-74231456D02*
X154998119Y-73993361D01*
X154998119Y-73993361D02*
X155045738Y-73850504D01*
X154998119Y-73517170D02*
X155998119Y-73279075D01*
X155998119Y-73279075D02*
X155283833Y-73088599D01*
X155283833Y-73088599D02*
X155998119Y-72898123D01*
X155998119Y-72898123D02*
X154998119Y-72660028D01*
X155093357Y-72326694D02*
X155045738Y-72279075D01*
X155045738Y-72279075D02*
X154998119Y-72183837D01*
X154998119Y-72183837D02*
X154998119Y-71945742D01*
X154998119Y-71945742D02*
X155045738Y-71850504D01*
X155045738Y-71850504D02*
X155093357Y-71802885D01*
X155093357Y-71802885D02*
X155188595Y-71755266D01*
X155188595Y-71755266D02*
X155283833Y-71755266D01*
X155283833Y-71755266D02*
X155426690Y-71802885D01*
X155426690Y-71802885D02*
X155998119Y-72374313D01*
X155998119Y-72374313D02*
X155998119Y-71755266D01*
X150241142Y-136472819D02*
X149907809Y-135996628D01*
X149669714Y-136472819D02*
X149669714Y-135472819D01*
X149669714Y-135472819D02*
X150050666Y-135472819D01*
X150050666Y-135472819D02*
X150145904Y-135520438D01*
X150145904Y-135520438D02*
X150193523Y-135568057D01*
X150193523Y-135568057D02*
X150241142Y-135663295D01*
X150241142Y-135663295D02*
X150241142Y-135806152D01*
X150241142Y-135806152D02*
X150193523Y-135901390D01*
X150193523Y-135901390D02*
X150145904Y-135949009D01*
X150145904Y-135949009D02*
X150050666Y-135996628D01*
X150050666Y-135996628D02*
X149669714Y-135996628D01*
X151193523Y-136472819D02*
X150622095Y-136472819D01*
X150907809Y-136472819D02*
X150907809Y-135472819D01*
X150907809Y-135472819D02*
X150812571Y-135615676D01*
X150812571Y-135615676D02*
X150717333Y-135710914D01*
X150717333Y-135710914D02*
X150622095Y-135758533D01*
X151669714Y-136472819D02*
X151860190Y-136472819D01*
X151860190Y-136472819D02*
X151955428Y-136425200D01*
X151955428Y-136425200D02*
X152003047Y-136377580D01*
X152003047Y-136377580D02*
X152098285Y-136234723D01*
X152098285Y-136234723D02*
X152145904Y-136044247D01*
X152145904Y-136044247D02*
X152145904Y-135663295D01*
X152145904Y-135663295D02*
X152098285Y-135568057D01*
X152098285Y-135568057D02*
X152050666Y-135520438D01*
X152050666Y-135520438D02*
X151955428Y-135472819D01*
X151955428Y-135472819D02*
X151764952Y-135472819D01*
X151764952Y-135472819D02*
X151669714Y-135520438D01*
X151669714Y-135520438D02*
X151622095Y-135568057D01*
X151622095Y-135568057D02*
X151574476Y-135663295D01*
X151574476Y-135663295D02*
X151574476Y-135901390D01*
X151574476Y-135901390D02*
X151622095Y-135996628D01*
X151622095Y-135996628D02*
X151669714Y-136044247D01*
X151669714Y-136044247D02*
X151764952Y-136091866D01*
X151764952Y-136091866D02*
X151955428Y-136091866D01*
X151955428Y-136091866D02*
X152050666Y-136044247D01*
X152050666Y-136044247D02*
X152098285Y-135996628D01*
X152098285Y-135996628D02*
X152145904Y-135901390D01*
X150241142Y-126312819D02*
X149907809Y-125836628D01*
X149669714Y-126312819D02*
X149669714Y-125312819D01*
X149669714Y-125312819D02*
X150050666Y-125312819D01*
X150050666Y-125312819D02*
X150145904Y-125360438D01*
X150145904Y-125360438D02*
X150193523Y-125408057D01*
X150193523Y-125408057D02*
X150241142Y-125503295D01*
X150241142Y-125503295D02*
X150241142Y-125646152D01*
X150241142Y-125646152D02*
X150193523Y-125741390D01*
X150193523Y-125741390D02*
X150145904Y-125789009D01*
X150145904Y-125789009D02*
X150050666Y-125836628D01*
X150050666Y-125836628D02*
X149669714Y-125836628D01*
X151193523Y-126312819D02*
X150622095Y-126312819D01*
X150907809Y-126312819D02*
X150907809Y-125312819D01*
X150907809Y-125312819D02*
X150812571Y-125455676D01*
X150812571Y-125455676D02*
X150717333Y-125550914D01*
X150717333Y-125550914D02*
X150622095Y-125598533D01*
X151526857Y-125312819D02*
X152193523Y-125312819D01*
X152193523Y-125312819D02*
X151764952Y-126312819D01*
X147582095Y-141992819D02*
X147582095Y-142802342D01*
X147582095Y-142802342D02*
X147629714Y-142897580D01*
X147629714Y-142897580D02*
X147677333Y-142945200D01*
X147677333Y-142945200D02*
X147772571Y-142992819D01*
X147772571Y-142992819D02*
X147963047Y-142992819D01*
X147963047Y-142992819D02*
X148058285Y-142945200D01*
X148058285Y-142945200D02*
X148105904Y-142897580D01*
X148105904Y-142897580D02*
X148153523Y-142802342D01*
X148153523Y-142802342D02*
X148153523Y-141992819D01*
X148534476Y-141992819D02*
X149153523Y-141992819D01*
X149153523Y-141992819D02*
X148820190Y-142373771D01*
X148820190Y-142373771D02*
X148963047Y-142373771D01*
X148963047Y-142373771D02*
X149058285Y-142421390D01*
X149058285Y-142421390D02*
X149105904Y-142469009D01*
X149105904Y-142469009D02*
X149153523Y-142564247D01*
X149153523Y-142564247D02*
X149153523Y-142802342D01*
X149153523Y-142802342D02*
X149105904Y-142897580D01*
X149105904Y-142897580D02*
X149058285Y-142945200D01*
X149058285Y-142945200D02*
X148963047Y-142992819D01*
X148963047Y-142992819D02*
X148677333Y-142992819D01*
X148677333Y-142992819D02*
X148582095Y-142945200D01*
X148582095Y-142945200D02*
X148534476Y-142897580D01*
X150241142Y-131392819D02*
X149907809Y-130916628D01*
X149669714Y-131392819D02*
X149669714Y-130392819D01*
X149669714Y-130392819D02*
X150050666Y-130392819D01*
X150050666Y-130392819D02*
X150145904Y-130440438D01*
X150145904Y-130440438D02*
X150193523Y-130488057D01*
X150193523Y-130488057D02*
X150241142Y-130583295D01*
X150241142Y-130583295D02*
X150241142Y-130726152D01*
X150241142Y-130726152D02*
X150193523Y-130821390D01*
X150193523Y-130821390D02*
X150145904Y-130869009D01*
X150145904Y-130869009D02*
X150050666Y-130916628D01*
X150050666Y-130916628D02*
X149669714Y-130916628D01*
X151193523Y-131392819D02*
X150622095Y-131392819D01*
X150907809Y-131392819D02*
X150907809Y-130392819D01*
X150907809Y-130392819D02*
X150812571Y-130535676D01*
X150812571Y-130535676D02*
X150717333Y-130630914D01*
X150717333Y-130630914D02*
X150622095Y-130678533D01*
X151764952Y-130821390D02*
X151669714Y-130773771D01*
X151669714Y-130773771D02*
X151622095Y-130726152D01*
X151622095Y-130726152D02*
X151574476Y-130630914D01*
X151574476Y-130630914D02*
X151574476Y-130583295D01*
X151574476Y-130583295D02*
X151622095Y-130488057D01*
X151622095Y-130488057D02*
X151669714Y-130440438D01*
X151669714Y-130440438D02*
X151764952Y-130392819D01*
X151764952Y-130392819D02*
X151955428Y-130392819D01*
X151955428Y-130392819D02*
X152050666Y-130440438D01*
X152050666Y-130440438D02*
X152098285Y-130488057D01*
X152098285Y-130488057D02*
X152145904Y-130583295D01*
X152145904Y-130583295D02*
X152145904Y-130630914D01*
X152145904Y-130630914D02*
X152098285Y-130726152D01*
X152098285Y-130726152D02*
X152050666Y-130773771D01*
X152050666Y-130773771D02*
X151955428Y-130821390D01*
X151955428Y-130821390D02*
X151764952Y-130821390D01*
X151764952Y-130821390D02*
X151669714Y-130869009D01*
X151669714Y-130869009D02*
X151622095Y-130916628D01*
X151622095Y-130916628D02*
X151574476Y-131011866D01*
X151574476Y-131011866D02*
X151574476Y-131202342D01*
X151574476Y-131202342D02*
X151622095Y-131297580D01*
X151622095Y-131297580D02*
X151669714Y-131345200D01*
X151669714Y-131345200D02*
X151764952Y-131392819D01*
X151764952Y-131392819D02*
X151955428Y-131392819D01*
X151955428Y-131392819D02*
X152050666Y-131345200D01*
X152050666Y-131345200D02*
X152098285Y-131297580D01*
X152098285Y-131297580D02*
X152145904Y-131202342D01*
X152145904Y-131202342D02*
X152145904Y-131011866D01*
X152145904Y-131011866D02*
X152098285Y-130916628D01*
X152098285Y-130916628D02*
X152050666Y-130869009D01*
X152050666Y-130869009D02*
X151955428Y-130821390D01*
X126029180Y-55578476D02*
X125314895Y-55578476D01*
X125314895Y-55578476D02*
X125172038Y-55530857D01*
X125172038Y-55530857D02*
X125076800Y-55435619D01*
X125076800Y-55435619D02*
X125029180Y-55292762D01*
X125029180Y-55292762D02*
X125029180Y-55197524D01*
X125029180Y-56578476D02*
X125029180Y-56007048D01*
X125029180Y-56292762D02*
X126029180Y-56292762D01*
X126029180Y-56292762D02*
X125886323Y-56197524D01*
X125886323Y-56197524D02*
X125791085Y-56102286D01*
X125791085Y-56102286D02*
X125743466Y-56007048D01*
X125600609Y-57149905D02*
X125648228Y-57054667D01*
X125648228Y-57054667D02*
X125695847Y-57007048D01*
X125695847Y-57007048D02*
X125791085Y-56959429D01*
X125791085Y-56959429D02*
X125838704Y-56959429D01*
X125838704Y-56959429D02*
X125933942Y-57007048D01*
X125933942Y-57007048D02*
X125981561Y-57054667D01*
X125981561Y-57054667D02*
X126029180Y-57149905D01*
X126029180Y-57149905D02*
X126029180Y-57340381D01*
X126029180Y-57340381D02*
X125981561Y-57435619D01*
X125981561Y-57435619D02*
X125933942Y-57483238D01*
X125933942Y-57483238D02*
X125838704Y-57530857D01*
X125838704Y-57530857D02*
X125791085Y-57530857D01*
X125791085Y-57530857D02*
X125695847Y-57483238D01*
X125695847Y-57483238D02*
X125648228Y-57435619D01*
X125648228Y-57435619D02*
X125600609Y-57340381D01*
X125600609Y-57340381D02*
X125600609Y-57149905D01*
X125600609Y-57149905D02*
X125552990Y-57054667D01*
X125552990Y-57054667D02*
X125505371Y-57007048D01*
X125505371Y-57007048D02*
X125410133Y-56959429D01*
X125410133Y-56959429D02*
X125219657Y-56959429D01*
X125219657Y-56959429D02*
X125124419Y-57007048D01*
X125124419Y-57007048D02*
X125076800Y-57054667D01*
X125076800Y-57054667D02*
X125029180Y-57149905D01*
X125029180Y-57149905D02*
X125029180Y-57340381D01*
X125029180Y-57340381D02*
X125076800Y-57435619D01*
X125076800Y-57435619D02*
X125124419Y-57483238D01*
X125124419Y-57483238D02*
X125219657Y-57530857D01*
X125219657Y-57530857D02*
X125410133Y-57530857D01*
X125410133Y-57530857D02*
X125505371Y-57483238D01*
X125505371Y-57483238D02*
X125552990Y-57435619D01*
X125552990Y-57435619D02*
X125600609Y-57340381D01*
D13*
%TO.C,C4*%
X152908748Y-143841800D02*
X153431252Y-143841800D01*
X152908748Y-145311800D02*
X153431252Y-145311800D01*
%TO.C,SW2*%
X152913300Y-69228600D02*
X152913300Y-69748600D01*
X152913300Y-76428600D02*
X152913300Y-76948600D01*
X153423300Y-69228600D02*
X152913300Y-69228600D01*
X153423300Y-69748600D02*
X152913300Y-69748600D01*
X153423300Y-76428600D02*
X152913300Y-76428600D01*
X153423300Y-76948600D02*
X152913300Y-76948600D01*
X156253300Y-69748600D02*
X156023300Y-69748600D01*
X156253300Y-69748600D02*
X156253300Y-70288600D01*
X156253300Y-71388600D02*
X156253300Y-74788600D01*
X156253300Y-75888600D02*
X156253300Y-76428600D01*
X156253300Y-76428600D02*
X156023300Y-76428600D01*
X158123300Y-69228600D02*
X156023300Y-69228600D01*
X158123300Y-76948600D02*
X156023300Y-76948600D01*
%TO.C,R19*%
X150656936Y-136933000D02*
X151111064Y-136933000D01*
X150656936Y-138403000D02*
X151111064Y-138403000D01*
%TO.C,R17*%
X150656936Y-126773000D02*
X151111064Y-126773000D01*
X150656936Y-128243000D02*
X151111064Y-128243000D01*
%TO.C,U3*%
X139394000Y-90558000D02*
X139394000Y-141598000D01*
X139394000Y-141598000D02*
X157294000Y-141598000D01*
X141884000Y-90618000D02*
X141884000Y-141538000D01*
X141884000Y-141538000D02*
X147344000Y-141538000D01*
X149344000Y-141538000D02*
X154804000Y-141538000D01*
X154804000Y-90618000D02*
X141884000Y-90618000D01*
X154804000Y-141538000D02*
X154804000Y-90618000D01*
X157294000Y-90558000D02*
X139394000Y-90558000D01*
X157294000Y-141598000D02*
X157294000Y-90558000D01*
X147344000Y-141538000D02*
G75*
G02*
X149344000Y-141538000I1000000J0D01*
G01*
%TO.C,R18*%
X150656936Y-131853000D02*
X151111064Y-131853000D01*
X150656936Y-133323000D02*
X151111064Y-133323000D01*
%TD*%
M02*
