%TF.GenerationSoftware,KiCad,Pcbnew,8.0.5*%
%TF.CreationDate,2026-08-25T21:19:11+03:00*%
%TF.ProjectId,6502,36353032-2e6b-4696-9361-645f70636258,rev?*%
%TF.SameCoordinates,Original*%
%TF.FileFunction,Soldermask,Top*%
%TF.FilePolarity,Negative*%
%FSLAX46Y46*%
G04 Gerber Fmt 4.6, Leading zero omitted, Abs format (unit mm)*
G04 Created by KiCad (PCBNEW 8.0.5) date 2026-08-25 21:19:11*
%MOMM*%
%LPD*%
G01*
G04 APERTURE LIST*
G04 Aperture macros list*
%AMRoundRect*
0 Rectangle with rounded corners*
0 $1 Rounding radius*
0 $2 $3 $4 $5 $6 $7 $8 $9 X,Y pos of 4 corners*
0 Add a 4 corners polygon primitive as box body*
4,1,4,$2,$3,$4,$5,$6,$7,$8,$9,$2,$3,0*
0 Add four circle primitives for the rounded corners*
1,1,$1+$1,$2,$3*
1,1,$1+$1,$4,$5*
1,1,$1+$1,$6,$7*
1,1,$1+$1,$8,$9*
0 Add four rect primitives between the rounded corners*
20,1,$1+$1,$2,$3,$4,$5,0*
20,1,$1+$1,$4,$5,$6,$7,0*
20,1,$1+$1,$6,$7,$8,$9,0*
20,1,$1+$1,$8,$9,$2,$3,0*%
G04 Aperture macros list end*
%ADD10O,1.600000X1.600000*%
%ADD11RoundRect,0.250000X-0.337500X-0.475000X0.337500X-0.475000X0.337500X0.475000X-0.337500X0.475000X0*%
%ADD12R,4.000000X2.000000*%
%ADD13C,2.100000*%
%ADD14C,1.750000*%
%ADD15RoundRect,0.250000X-0.350000X-0.450000X0.350000X-0.450000X0.350000X0.450000X-0.350000X0.450000X0*%
%ADD16R,1.600000X1.600000*%
G04 APERTURE END LIST*
D10*
%TO.C,*%
X136914000Y-83058000D03*
%TD*%
%TO.C,*%
X134374000Y-65278000D03*
%TD*%
%TO.C,*%
X136914000Y-85598000D03*
%TD*%
%TO.C,*%
X149614000Y-57658000D03*
%TD*%
%TO.C,*%
X136914000Y-70358000D03*
%TD*%
%TO.C,*%
X136914000Y-77978000D03*
%TD*%
%TO.C,*%
X139454000Y-67818000D03*
%TD*%
%TO.C,*%
X139454000Y-80518000D03*
%TD*%
%TO.C,*%
X141994000Y-57658000D03*
%TD*%
%TO.C,*%
X144534000Y-72898000D03*
%TD*%
%TO.C,*%
X141994000Y-60198000D03*
%TD*%
D11*
%TO.C,C4*%
X152132500Y-144576800D03*
X154207500Y-144576800D03*
%TD*%
D10*
%TO.C,*%
X134374000Y-60198000D03*
%TD*%
%TO.C,*%
X149614000Y-75438000D03*
%TD*%
%TO.C,*%
X147074000Y-57658000D03*
%TD*%
D12*
%TO.C,J12*%
X122994800Y-91998800D03*
X122994800Y-94538800D03*
X122994800Y-97078800D03*
X122994800Y-99618800D03*
X122994800Y-102158800D03*
X122994800Y-104698800D03*
X122994800Y-107238800D03*
X122994800Y-109778800D03*
X122994800Y-112318800D03*
X122994800Y-114858800D03*
X122994800Y-117398800D03*
X122994800Y-119938800D03*
X122994800Y-122478800D03*
X122994800Y-125018800D03*
X122994800Y-127558800D03*
X122994800Y-130098800D03*
X122994800Y-132638800D03*
X122994800Y-135178800D03*
X122994800Y-137718800D03*
X122994800Y-140258800D03*
%TD*%
D10*
%TO.C,*%
X136914000Y-65278000D03*
%TD*%
%TO.C,*%
X144534000Y-60198000D03*
%TD*%
%TO.C,*%
X141994000Y-75438000D03*
%TD*%
%TO.C,*%
X149614000Y-85598000D03*
%TD*%
%TO.C,*%
X134374000Y-83058000D03*
%TD*%
%TO.C,*%
X144534000Y-75438000D03*
%TD*%
%TO.C,*%
X134374000Y-85598000D03*
%TD*%
%TO.C,*%
X134374000Y-62738000D03*
%TD*%
%TO.C,*%
X149614000Y-80518000D03*
%TD*%
%TO.C,*%
X141994000Y-72898000D03*
%TD*%
%TO.C,*%
X149614000Y-60198000D03*
%TD*%
D13*
%TO.C,SW2*%
X154733300Y-69588600D03*
X154733300Y-76598600D03*
D14*
X157223300Y-70838600D03*
X157223300Y-75338600D03*
%TD*%
D10*
%TO.C,*%
X144534000Y-67818000D03*
%TD*%
%TO.C,*%
X139454000Y-72898000D03*
%TD*%
%TO.C,*%
X134374000Y-80518000D03*
%TD*%
D15*
%TO.C,R19*%
X149884000Y-137668000D03*
X151884000Y-137668000D03*
%TD*%
D10*
%TO.C,*%
X141994000Y-62738000D03*
%TD*%
%TO.C,*%
X139454000Y-83058000D03*
%TD*%
%TO.C,*%
X144534000Y-80518000D03*
%TD*%
%TO.C,*%
X136914000Y-57658000D03*
%TD*%
%TO.C,*%
X147074000Y-65278000D03*
%TD*%
%TO.C,*%
X144534000Y-65278000D03*
%TD*%
%TO.C,*%
X136914000Y-75438000D03*
%TD*%
%TO.C,*%
X139454000Y-75438000D03*
%TD*%
%TO.C,*%
X149614000Y-65278000D03*
%TD*%
%TO.C,*%
X134374000Y-75438000D03*
%TD*%
%TO.C,*%
X136914000Y-62738000D03*
%TD*%
%TO.C,*%
X139454000Y-60198000D03*
%TD*%
%TO.C,*%
X134374000Y-70358000D03*
%TD*%
%TO.C,*%
X147074000Y-67818000D03*
%TD*%
%TO.C,*%
X141994000Y-80518000D03*
%TD*%
%TO.C,*%
X149614000Y-83058000D03*
%TD*%
D15*
%TO.C,R17*%
X149884000Y-127508000D03*
X151884000Y-127508000D03*
%TD*%
D10*
%TO.C,*%
X147074000Y-70358000D03*
%TD*%
%TO.C,*%
X147074000Y-83058000D03*
%TD*%
%TO.C,*%
X141994000Y-77978000D03*
%TD*%
%TO.C,*%
X134374000Y-57658000D03*
%TD*%
%TO.C,*%
X144534000Y-83058000D03*
%TD*%
D16*
%TO.C,U3*%
X155964000Y-140208000D03*
D10*
X155964000Y-137668000D03*
X155964000Y-135128000D03*
X155964000Y-132588000D03*
X155964000Y-130048000D03*
X155964000Y-127508000D03*
X155964000Y-124968000D03*
X155964000Y-122428000D03*
X155964000Y-119888000D03*
X155964000Y-117348000D03*
X155964000Y-114808000D03*
X155964000Y-112268000D03*
X155964000Y-109728000D03*
X155964000Y-107188000D03*
X155964000Y-104648000D03*
X155964000Y-102108000D03*
X155964000Y-99568000D03*
X155964000Y-97028000D03*
X155964000Y-94488000D03*
X155964000Y-91948000D03*
X140724000Y-91948000D03*
X140724000Y-94488000D03*
X140724000Y-97028000D03*
X140724000Y-99568000D03*
X140724000Y-102108000D03*
X140724000Y-104648000D03*
X140724000Y-107188000D03*
X140724000Y-109728000D03*
X140724000Y-112268000D03*
X140724000Y-114808000D03*
X140724000Y-117348000D03*
X140724000Y-119888000D03*
X140724000Y-122428000D03*
X140724000Y-124968000D03*
X140724000Y-127508000D03*
X140724000Y-130048000D03*
X140724000Y-132588000D03*
X140724000Y-135128000D03*
X140724000Y-137668000D03*
X140724000Y-140208000D03*
%TD*%
%TO.C,*%
X139454000Y-70358000D03*
%TD*%
%TO.C,*%
X149614000Y-62738000D03*
%TD*%
%TO.C,*%
X147074000Y-60198000D03*
%TD*%
%TO.C,*%
X139454000Y-85598000D03*
%TD*%
%TO.C,*%
X144534000Y-77978000D03*
%TD*%
%TO.C,*%
X149614000Y-72898000D03*
%TD*%
%TO.C,*%
X141994000Y-70358000D03*
%TD*%
%TO.C,*%
X147074000Y-75438000D03*
%TD*%
D15*
%TO.C,R18*%
X149884000Y-132588000D03*
X151884000Y-132588000D03*
%TD*%
D10*
%TO.C,*%
X139454000Y-77978000D03*
%TD*%
%TO.C,*%
X139454000Y-65278000D03*
%TD*%
%TO.C,*%
X144534000Y-62738000D03*
%TD*%
%TO.C,*%
X144534000Y-70358000D03*
%TD*%
%TO.C,*%
X147074000Y-80518000D03*
%TD*%
D12*
%TO.C,J18*%
X122944000Y-58928000D03*
X122944000Y-61468000D03*
X122944000Y-64008000D03*
X122944000Y-66548000D03*
X122944000Y-69088000D03*
X122944000Y-71628000D03*
X122944000Y-74168000D03*
X122944000Y-76708000D03*
X122944000Y-79248000D03*
X122944000Y-81788000D03*
%TD*%
D10*
%TO.C,*%
X147074000Y-62738000D03*
%TD*%
%TO.C,*%
X139454000Y-57658000D03*
%TD*%
%TO.C,*%
X134374000Y-72898000D03*
%TD*%
%TO.C,*%
X136914000Y-67818000D03*
%TD*%
%TO.C,*%
X136914000Y-72898000D03*
%TD*%
%TO.C,*%
X147074000Y-85598000D03*
%TD*%
%TO.C,*%
X141994000Y-67818000D03*
%TD*%
%TO.C,*%
X149614000Y-70358000D03*
%TD*%
%TO.C,*%
X147074000Y-72898000D03*
%TD*%
%TO.C,*%
X134374000Y-67818000D03*
%TD*%
%TO.C,*%
X136914000Y-80518000D03*
%TD*%
%TO.C,*%
X136914000Y-60198000D03*
%TD*%
%TO.C,*%
X141994000Y-65278000D03*
%TD*%
%TO.C,*%
X141994000Y-83058000D03*
%TD*%
%TO.C,*%
X144534000Y-57658000D03*
%TD*%
%TO.C,*%
X139454000Y-62738000D03*
%TD*%
%TO.C,*%
X149614000Y-77978000D03*
%TD*%
%TO.C,*%
X149614000Y-67818000D03*
%TD*%
%TO.C,*%
X134374000Y-77978000D03*
%TD*%
%TO.C,*%
X147074000Y-77978000D03*
%TD*%
%TO.C,*%
X144534000Y-85598000D03*
%TD*%
%TO.C,*%
X141994000Y-85598000D03*
%TD*%
M02*
