M48
; DRILL file {KiCad 8.0.5} date 2026-09-27T18:27:39+0300
; FORMAT={-:-/ absolute / inch / decimal}
; #@! TF.CreationDate,2026-09-27T18:27:39+03:00
; #@! TF.GenerationSoftware,Kicad,Pcbnew,8.0.5
; #@! TF.FileFunction,Plated,1,2,PTH
FMAT,2
INCH
; #@! TA.AperFunction,Plated,PTH,ViaDrill
T1C0.0118
; #@! TA.AperFunction,Plated,PTH,ComponentDrill
T2C0.0315
; #@! TA.AperFunction,Plated,PTH,ComponentDrill
T3C0.0394
; #@! TA.AperFunction,Plated,PTH,ComponentDrill
T4C0.1260
%
G90
G05
T1
X5.135Y-3.463
X5.152Y-5.303
X5.155Y-3.403
X5.199Y-3.449
X5.588Y-3.403
X5.811Y-2.904
X5.935Y-3.8
X6.2043Y-3.6093
T2
X5.3844Y-3.8006
X5.3844Y-3.9006
X5.3844Y-4.0006
X5.3844Y-4.1006
X5.3844Y-4.2006
X5.3844Y-4.3006
X5.3844Y-4.4006
X5.3844Y-4.5006
X5.385Y-4.7713
X5.385Y-4.85
X5.6844Y-3.8006
X5.6844Y-3.9006
X5.6844Y-4.0006
X5.6844Y-4.1006
X5.6844Y-4.2006
X5.6844Y-4.3006
X5.6844Y-4.4006
X5.6844Y-4.5006
T3
X5.6365Y-5.3333
X5.691Y-5.4451
X5.7456Y-5.3333
X5.8001Y-5.4451
X5.8546Y-5.3333
X5.9091Y-5.4451
X5.9637Y-5.3333
X6.0182Y-5.4451
X6.0727Y-5.3333
T4
X5.3625Y-5.3451
X6.3467Y-5.3451
M30
