%TF.GenerationSoftware,KiCad,Pcbnew,8.0.5*%
%TF.CreationDate,2026-09-27T18:27:48+03:00*%
%TF.ProjectId,IO_SG1000,494f5f53-4731-4303-9030-2e6b69636164,rev?*%
%TF.SameCoordinates,Original*%
%TF.FileFunction,Copper,L1,Top*%
%TF.FilePolarity,Positive*%
%FSLAX46Y46*%
G04 Gerber Fmt 4.6, Leading zero omitted, Abs format (unit mm)*
G04 Created by KiCad (PCBNEW 8.0.5) date 2026-09-27 18:27:48*
%MOMM*%
%LPD*%
G01*
G04 APERTURE LIST*
G04 Aperture macros list*
%AMRoundRect*
0 Rectangle with rounded corners*
0 $1 Rounding radius*
0 $2 $3 $4 $5 $6 $7 $8 $9 X,Y pos of 4 corners*
0 Add a 4 corners polygon primitive as box body*
4,1,4,$2,$3,$4,$5,$6,$7,$8,$9,$2,$3,0*
0 Add four circle primitives for the rounded corners*
1,1,$1+$1,$2,$3*
1,1,$1+$1,$4,$5*
1,1,$1+$1,$6,$7*
1,1,$1+$1,$8,$9*
0 Add four rect primitives between the rounded corners*
20,1,$1+$1,$2,$3,$4,$5,0*
20,1,$1+$1,$4,$5,$6,$7,0*
20,1,$1+$1,$6,$7,$8,$9,0*
20,1,$1+$1,$8,$9,$2,$3,0*%
G04 Aperture macros list end*
%TA.AperFunction,SMDPad,CuDef*%
%ADD10RoundRect,0.250000X0.450000X-0.325000X0.450000X0.325000X-0.450000X0.325000X-0.450000X-0.325000X0*%
%TD*%
%TA.AperFunction,SMDPad,CuDef*%
%ADD11RoundRect,0.250000X0.450000X-0.350000X0.450000X0.350000X-0.450000X0.350000X-0.450000X-0.350000X0*%
%TD*%
%TA.AperFunction,ConnectorPad*%
%ADD12R,4.000000X2.000000*%
%TD*%
%TA.AperFunction,ComponentPad*%
%ADD13R,1.600000X1.600000*%
%TD*%
%TA.AperFunction,ComponentPad*%
%ADD14C,1.600000*%
%TD*%
%TA.AperFunction,SMDPad,CuDef*%
%ADD15RoundRect,0.250000X-0.475000X0.337500X-0.475000X-0.337500X0.475000X-0.337500X0.475000X0.337500X0*%
%TD*%
%TA.AperFunction,SMDPad,CuDef*%
%ADD16RoundRect,0.250000X0.475000X-0.337500X0.475000X0.337500X-0.475000X0.337500X-0.475000X-0.337500X0*%
%TD*%
%TA.AperFunction,SMDPad,CuDef*%
%ADD17R,1.200000X2.500000*%
%TD*%
%TA.AperFunction,ComponentPad*%
%ADD18C,4.000000*%
%TD*%
%TA.AperFunction,ComponentPad*%
%ADD19R,2.400000X1.600000*%
%TD*%
%TA.AperFunction,ComponentPad*%
%ADD20O,2.400000X1.600000*%
%TD*%
%TA.AperFunction,SMDPad,CuDef*%
%ADD21RoundRect,0.250000X0.350000X0.450000X-0.350000X0.450000X-0.350000X-0.450000X0.350000X-0.450000X0*%
%TD*%
%TA.AperFunction,ViaPad*%
%ADD22C,0.600000*%
%TD*%
%TA.AperFunction,ViaPad*%
%ADD23C,0.500000*%
%TD*%
%TA.AperFunction,Conductor*%
%ADD24C,0.300000*%
%TD*%
%TA.AperFunction,Conductor*%
%ADD25C,0.800000*%
%TD*%
%TA.AperFunction,Conductor*%
%ADD26C,0.200000*%
%TD*%
G04 APERTURE END LIST*
D10*
%TO.P,FB2,1*%
%TO.N,N/C*%
X152654000Y-67065000D03*
%TO.P,FB2,2*%
X152654000Y-65015000D03*
%TD*%
D11*
%TO.P,R3,1*%
%TO.N,N/C*%
X147574000Y-67040000D03*
%TO.P,R3,2*%
X147574000Y-65040000D03*
%TD*%
D12*
%TO.P,J25,2,Pin_2*%
%TO.N,N/C*%
X126746000Y-86436200D03*
%TO.P,J25,4,Pin_4*%
X126746000Y-88976200D03*
%TO.P,J25,6,Pin_6*%
X126746000Y-91516200D03*
%TO.P,J25,8,Pin_8*%
X126746000Y-94056200D03*
%TO.P,J25,10,Pin_10*%
X126746000Y-96596200D03*
%TO.P,J25,12,Pin_12*%
X126746000Y-99136200D03*
%TO.P,J25,14,Pin_14*%
X126746000Y-101676200D03*
%TO.P,J25,16,Pin_16*%
X126746000Y-104216200D03*
%TO.P,J25,18,Pin_18*%
X126746000Y-106756200D03*
%TO.P,J25,20,Pin_20*%
X126746000Y-109296200D03*
%TO.P,J25,22,Pin_22*%
X126746000Y-111836200D03*
%TO.P,J25,24,Pin_24*%
X126746000Y-114376200D03*
%TO.P,J25,26,Pin_26*%
X126746000Y-116916200D03*
%TO.P,J25,28,Pin_28*%
X126746000Y-119456200D03*
%TO.P,J25,30,Pin_30*%
X126746000Y-121996200D03*
%TO.P,J25,32,Pin_32*%
X126746000Y-124536200D03*
%TO.P,J25,34,Pin_34*%
X126746000Y-127076200D03*
%TO.P,J25,36,Pin_36*%
X126746000Y-129616200D03*
%TO.P,J25,38,Pin_38*%
X126746000Y-132156200D03*
%TO.P,J25,40,Pin_40*%
X126746000Y-134696200D03*
%TD*%
D13*
%TO.P,C20,1*%
%TO.N,N/C*%
X136779000Y-123190000D03*
D14*
%TO.P,C20,2*%
X136779000Y-121190000D03*
%TD*%
D15*
%TO.P,C14,1*%
%TO.N,N/C*%
X150749000Y-93196500D03*
%TO.P,C14,2*%
X150749000Y-95271500D03*
%TD*%
D16*
%TO.P,C12,1*%
%TO.N,N/C*%
X145034000Y-67077500D03*
%TO.P,C12,2*%
X145034000Y-65002500D03*
%TD*%
%TO.P,C13,1*%
%TO.N,N/C*%
X150114000Y-67077500D03*
%TO.P,C13,2*%
X150114000Y-65002500D03*
%TD*%
D17*
%TO.P,J22,1,G*%
%TO.N,N/C*%
X151352000Y-54662000D03*
%TO.P,J22,2,T*%
X152452000Y-61162000D03*
%TO.P,J22,3,R*%
X156452000Y-61162000D03*
%TO.P,J22,4,S*%
X159452000Y-61162000D03*
%TD*%
D18*
%TO.P,J10,0,PAD*%
%TO.N,N/C*%
X136207000Y-135764669D03*
X161207000Y-135764669D03*
D13*
%TO.P,J10,1,1*%
X143167000Y-135464669D03*
D14*
%TO.P,J10,2,2*%
X145937000Y-135464669D03*
%TO.P,J10,3,3*%
X148707000Y-135464669D03*
%TO.P,J10,4,4*%
X151477000Y-135464669D03*
%TO.P,J10,5,5*%
X154247000Y-135464669D03*
%TO.P,J10,6,6*%
X144552000Y-138304669D03*
%TO.P,J10,7,7*%
X147322000Y-138304669D03*
%TO.P,J10,8,8*%
X150092000Y-138304669D03*
%TO.P,J10,9,9*%
X152862000Y-138304669D03*
%TD*%
D12*
%TO.P,J24,2,Pin_2*%
%TO.N,N/C*%
X126619000Y-53340000D03*
%TO.P,J24,4,Pin_4*%
X126619000Y-55880000D03*
%TO.P,J24,6,Pin_6*%
X126619000Y-58420000D03*
%TO.P,J24,8,Pin_8*%
X126619000Y-60960000D03*
%TO.P,J24,10,Pin_10*%
X126619000Y-63500000D03*
%TO.P,J24,12,Pin_12*%
X126619000Y-66040000D03*
%TO.P,J24,14,Pin_14*%
X126619000Y-68580000D03*
%TO.P,J24,16,Pin_16*%
X126619000Y-71120000D03*
%TO.P,J24,18,Pin_18*%
X126619000Y-73660000D03*
%TO.P,J24,20,Pin_20*%
X126619000Y-76200000D03*
%TD*%
D19*
%TO.P,U7,1,D2*%
%TO.N,N/C*%
X136764000Y-96535000D03*
D20*
%TO.P,U7,2,D1*%
X136764000Y-99075000D03*
%TO.P,U7,3,D0*%
X136764000Y-101615000D03*
%TO.P,U7,4,READY*%
X136764000Y-104155000D03*
%TO.P,U7,5,~{WE}*%
X136764000Y-106695000D03*
%TO.P,U7,6,~{CE}*%
X136764000Y-109235000D03*
%TO.P,U7,7,Audio*%
X136764000Y-111775000D03*
%TO.P,U7,8,GND*%
X136764000Y-114315000D03*
%TO.P,U7,9,N/C*%
X144384000Y-114315000D03*
%TO.P,U7,10,D7*%
X144384000Y-111775000D03*
%TO.P,U7,11,D6*%
X144384000Y-109235000D03*
%TO.P,U7,12,D5*%
X144384000Y-106695000D03*
%TO.P,U7,13,D4*%
X144384000Y-104155000D03*
%TO.P,U7,14,CLK*%
X144384000Y-101615000D03*
%TO.P,U7,15,D3*%
X144384000Y-99075000D03*
%TO.P,U7,16,Vcc*%
X144384000Y-96535000D03*
%TD*%
D21*
%TO.P,R26,1*%
%TO.N,N/C*%
X138922000Y-129921000D03*
%TO.P,R26,2*%
X136922000Y-129921000D03*
%TD*%
D22*
%TO.N,*%
X147599400Y-73761600D03*
X150749000Y-96519992D03*
D23*
X157588342Y-91675342D03*
D22*
X130429000Y-87960200D03*
D23*
X130860800Y-134696200D03*
D22*
X141935200Y-86436200D03*
D23*
X130937000Y-86436200D03*
D22*
X132054600Y-87604600D03*
%TD*%
D24*
%TO.N,*%
X140563600Y-107873800D02*
X141655800Y-106781600D01*
X126746000Y-111836200D02*
X130784600Y-111836200D01*
X130784600Y-111836200D02*
X131995800Y-110625000D01*
D25*
X148971000Y-92964000D02*
X148971000Y-114808000D01*
D24*
X126746000Y-106756200D02*
X126818800Y-106829000D01*
X126746000Y-104216200D02*
X130987800Y-104216200D01*
X148299400Y-67765400D02*
X147574000Y-67040000D01*
D26*
X126746000Y-91516200D02*
X127746000Y-91516200D01*
D24*
X156452000Y-62980000D02*
X156452000Y-61162000D01*
X138922000Y-133806039D02*
X138922000Y-129921000D01*
X141655800Y-106781600D02*
X141909800Y-106781600D01*
D25*
X163372800Y-119430800D02*
X163372800Y-133598869D01*
D24*
X143234000Y-110625000D02*
X144384000Y-111775000D01*
D25*
X156255669Y-140716000D02*
X161207000Y-135764669D01*
X126619000Y-53340000D02*
X137668000Y-53340000D01*
D24*
X140589000Y-104775000D02*
X140589000Y-102870000D01*
D25*
X139065000Y-51943000D02*
X150749000Y-51943000D01*
X155321000Y-51943000D02*
X150749000Y-51943000D01*
D24*
X131995800Y-110625000D02*
X143234000Y-110625000D01*
X141568600Y-116179600D02*
X146100800Y-116179600D01*
D25*
X142494000Y-123190000D02*
X150749000Y-114935000D01*
X151352000Y-52038000D02*
X151352000Y-54662000D01*
D24*
X145536500Y-67077500D02*
X147574000Y-65040000D01*
X136764000Y-111775000D02*
X137164000Y-111775000D01*
D25*
X150092000Y-138304669D02*
X150092000Y-140694000D01*
D24*
X130987800Y-104216200D02*
X136129000Y-99075000D01*
X136098854Y-107873800D02*
X140563600Y-107873800D01*
X131622800Y-106756200D02*
X133074000Y-105305000D01*
X156464000Y-62992000D02*
X156452000Y-62980000D01*
X145260346Y-108085000D02*
X141063600Y-108085000D01*
D25*
X130860800Y-134696200D02*
X135636000Y-129921000D01*
D24*
X126746000Y-109296200D02*
X134676454Y-109296200D01*
X141063600Y-108085000D02*
X139913600Y-109235000D01*
X134676454Y-109296200D02*
X136098854Y-107873800D01*
D25*
X136779000Y-123190000D02*
X142494000Y-123190000D01*
D24*
X145034000Y-67077500D02*
X145536500Y-67077500D01*
D25*
X148971000Y-114808000D02*
X142589000Y-121190000D01*
D26*
X131657600Y-87604600D02*
X132054600Y-87604600D01*
D25*
X163372800Y-133598869D02*
X161207000Y-135764669D01*
X157861000Y-92075000D02*
X157861000Y-91948000D01*
X150749000Y-91948000D02*
X157315684Y-91948000D01*
D26*
X129413000Y-88976200D02*
X130429000Y-87960200D01*
D24*
X152654000Y-63500000D02*
X156337000Y-63500000D01*
X126746000Y-109296200D02*
X126818800Y-109369000D01*
X140059000Y-105305000D02*
X140589000Y-104775000D01*
D25*
X159452000Y-56074000D02*
X155321000Y-51943000D01*
X157861000Y-91770200D02*
X159452000Y-90179200D01*
X136764000Y-121175000D02*
X136764000Y-114315000D01*
X157683200Y-91770200D02*
X157588342Y-91675342D01*
D24*
X152654000Y-61364000D02*
X152452000Y-61162000D01*
X148209000Y-74141950D02*
X148299400Y-74051550D01*
D25*
X159452000Y-90179200D02*
X159452000Y-75886000D01*
D24*
X156464000Y-63373000D02*
X156464000Y-62992000D01*
X148209000Y-114071400D02*
X148209000Y-74141950D01*
X126746000Y-106756200D02*
X131622800Y-106756200D01*
X126619000Y-55880000D02*
X129132950Y-55880000D01*
D25*
X150749000Y-91948000D02*
X149987000Y-91948000D01*
X151257000Y-51943000D02*
X151352000Y-52038000D01*
X150749000Y-96519992D02*
X150749000Y-95271500D01*
D24*
X146100800Y-116179600D02*
X148209000Y-114071400D01*
X146939000Y-100330000D02*
X145654000Y-101615000D01*
X140589000Y-102870000D02*
X144384000Y-99075000D01*
X147599400Y-73761600D02*
X147599400Y-105745946D01*
X152654000Y-63500000D02*
X152654000Y-61364000D01*
X141996400Y-106695000D02*
X144384000Y-106695000D01*
D25*
X157861000Y-91948000D02*
X157588342Y-91675342D01*
D24*
X150126500Y-67065000D02*
X150114000Y-67077500D01*
X143420630Y-138304669D02*
X138922000Y-133806039D01*
X146939000Y-73686050D02*
X146939000Y-100330000D01*
D25*
X136922000Y-129921000D02*
X136922000Y-123333000D01*
D24*
X147574000Y-65040000D02*
X150076500Y-65040000D01*
D25*
X159452000Y-61162000D02*
X159452000Y-75886000D01*
D24*
X133074000Y-105305000D02*
X140059000Y-105305000D01*
X152654000Y-67065000D02*
X150126500Y-67065000D01*
D25*
X135636000Y-129921000D02*
X136922000Y-129921000D01*
X150749000Y-91948000D02*
X150749000Y-93196500D01*
X142589000Y-121190000D02*
X136779000Y-121190000D01*
X157861000Y-91770200D02*
X157683200Y-91770200D01*
D24*
X148299400Y-74051550D02*
X148299400Y-67765400D01*
D25*
X136779000Y-121190000D02*
X136764000Y-121175000D01*
X157861000Y-113919000D02*
X163372800Y-119430800D01*
X150114000Y-140716000D02*
X156255669Y-140716000D01*
X150114000Y-140716000D02*
X141158331Y-140716000D01*
X145034000Y-59436000D02*
X149808000Y-54662000D01*
X137668000Y-53340000D02*
X139065000Y-51943000D01*
X157861000Y-91770200D02*
X157861000Y-113919000D01*
X141158331Y-140716000D02*
X136207000Y-135764669D01*
X126746000Y-86436200D02*
X141935200Y-86436200D01*
X149987000Y-91948000D02*
X148971000Y-92964000D01*
D24*
X150076500Y-65040000D02*
X150114000Y-65002500D01*
X136129000Y-99075000D02*
X136764000Y-99075000D01*
X141909800Y-106781600D02*
X141996400Y-106695000D01*
D26*
X127746000Y-91516200D02*
X131657600Y-87604600D01*
D24*
X156337000Y-63500000D02*
X156464000Y-63373000D01*
D25*
X150749000Y-51943000D02*
X151257000Y-51943000D01*
X150749000Y-114935000D02*
X150749000Y-96519992D01*
X145034000Y-65002500D02*
X145034000Y-59436000D01*
X157861000Y-114173000D02*
X157861000Y-91948000D01*
X149808000Y-54662000D02*
X151352000Y-54662000D01*
D24*
X145654000Y-101615000D02*
X144384000Y-101615000D01*
X144552000Y-138304669D02*
X143420630Y-138304669D01*
D25*
X136922000Y-123333000D02*
X136779000Y-123190000D01*
D26*
X126746000Y-88976200D02*
X129413000Y-88976200D01*
D24*
X129132950Y-55880000D02*
X146939000Y-73686050D01*
X139913600Y-109235000D02*
X136764000Y-109235000D01*
X126746000Y-111836200D02*
X126818800Y-111909000D01*
D25*
X157315684Y-91948000D02*
X157588342Y-91675342D01*
X126746000Y-134696200D02*
X130860800Y-134696200D01*
D24*
X147599400Y-105745946D02*
X145260346Y-108085000D01*
X152654000Y-65015000D02*
X152654000Y-63500000D01*
X144399000Y-96520000D02*
X144384000Y-96535000D01*
D25*
X159452000Y-61162000D02*
X159452000Y-56074000D01*
D24*
X137164000Y-111775000D02*
X141568600Y-116179600D01*
%TD*%
M02*
