%TF.GenerationSoftware,KiCad,Pcbnew,8.0.5*%
%TF.CreationDate,2026-09-27T18:27:48+03:00*%
%TF.ProjectId,IO_SG1000,494f5f53-4731-4303-9030-2e6b69636164,rev?*%
%TF.SameCoordinates,Original*%
%TF.FileFunction,Soldermask,Top*%
%TF.FilePolarity,Negative*%
%FSLAX46Y46*%
G04 Gerber Fmt 4.6, Leading zero omitted, Abs format (unit mm)*
G04 Created by KiCad (PCBNEW 8.0.5) date 2026-09-27 18:27:48*
%MOMM*%
%LPD*%
G01*
G04 APERTURE LIST*
G04 Aperture macros list*
%AMRoundRect*
0 Rectangle with rounded corners*
0 $1 Rounding radius*
0 $2 $3 $4 $5 $6 $7 $8 $9 X,Y pos of 4 corners*
0 Add a 4 corners polygon primitive as box body*
4,1,4,$2,$3,$4,$5,$6,$7,$8,$9,$2,$3,0*
0 Add four circle primitives for the rounded corners*
1,1,$1+$1,$2,$3*
1,1,$1+$1,$4,$5*
1,1,$1+$1,$6,$7*
1,1,$1+$1,$8,$9*
0 Add four rect primitives between the rounded corners*
20,1,$1+$1,$2,$3,$4,$5,0*
20,1,$1+$1,$4,$5,$6,$7,0*
20,1,$1+$1,$6,$7,$8,$9,0*
20,1,$1+$1,$8,$9,$2,$3,0*%
G04 Aperture macros list end*
%ADD10RoundRect,0.250000X0.450000X-0.325000X0.450000X0.325000X-0.450000X0.325000X-0.450000X-0.325000X0*%
%ADD11RoundRect,0.250000X0.450000X-0.350000X0.450000X0.350000X-0.450000X0.350000X-0.450000X-0.350000X0*%
%ADD12R,4.000000X2.000000*%
%ADD13R,1.600000X1.600000*%
%ADD14C,1.600000*%
%ADD15RoundRect,0.250000X-0.475000X0.337500X-0.475000X-0.337500X0.475000X-0.337500X0.475000X0.337500X0*%
%ADD16RoundRect,0.250000X0.475000X-0.337500X0.475000X0.337500X-0.475000X0.337500X-0.475000X-0.337500X0*%
%ADD17C,1.500000*%
%ADD18R,1.200000X2.500000*%
%ADD19C,4.000000*%
%ADD20R,2.400000X1.600000*%
%ADD21O,2.400000X1.600000*%
%ADD22RoundRect,0.250000X0.350000X0.450000X-0.350000X0.450000X-0.350000X-0.450000X0.350000X-0.450000X0*%
G04 APERTURE END LIST*
D10*
%TO.C,FB2*%
X152654000Y-67065000D03*
X152654000Y-65015000D03*
%TD*%
D11*
%TO.C,R3*%
X147574000Y-67040000D03*
X147574000Y-65040000D03*
%TD*%
D12*
%TO.C,J25*%
X126746000Y-86436200D03*
X126746000Y-88976200D03*
X126746000Y-91516200D03*
X126746000Y-94056200D03*
X126746000Y-96596200D03*
X126746000Y-99136200D03*
X126746000Y-101676200D03*
X126746000Y-104216200D03*
X126746000Y-106756200D03*
X126746000Y-109296200D03*
X126746000Y-111836200D03*
X126746000Y-114376200D03*
X126746000Y-116916200D03*
X126746000Y-119456200D03*
X126746000Y-121996200D03*
X126746000Y-124536200D03*
X126746000Y-127076200D03*
X126746000Y-129616200D03*
X126746000Y-132156200D03*
X126746000Y-134696200D03*
%TD*%
D13*
%TO.C,C20*%
X136779000Y-123190000D03*
D14*
X136779000Y-121190000D03*
%TD*%
D15*
%TO.C,C14*%
X150749000Y-93196500D03*
X150749000Y-95271500D03*
%TD*%
D16*
%TO.C,C12*%
X145034000Y-67077500D03*
X145034000Y-65002500D03*
%TD*%
%TO.C,C13*%
X150114000Y-67077500D03*
X150114000Y-65002500D03*
%TD*%
D17*
%TO.C,J22*%
X161052000Y-57912000D03*
X154052000Y-57912000D03*
D18*
X151352000Y-54662000D03*
X152452000Y-61162000D03*
X156452000Y-61162000D03*
X159452000Y-61162000D03*
%TD*%
D19*
%TO.C,J10*%
X136207000Y-135764669D03*
X161207000Y-135764669D03*
D13*
X143167000Y-135464669D03*
D14*
X145937000Y-135464669D03*
X148707000Y-135464669D03*
X151477000Y-135464669D03*
X154247000Y-135464669D03*
X144552000Y-138304669D03*
X147322000Y-138304669D03*
X150092000Y-138304669D03*
X152862000Y-138304669D03*
%TD*%
D12*
%TO.C,J24*%
X126619000Y-53340000D03*
X126619000Y-55880000D03*
X126619000Y-58420000D03*
X126619000Y-60960000D03*
X126619000Y-63500000D03*
X126619000Y-66040000D03*
X126619000Y-68580000D03*
X126619000Y-71120000D03*
X126619000Y-73660000D03*
X126619000Y-76200000D03*
%TD*%
D20*
%TO.C,U7*%
X136764000Y-96535000D03*
D21*
X136764000Y-99075000D03*
X136764000Y-101615000D03*
X136764000Y-104155000D03*
X136764000Y-106695000D03*
X136764000Y-109235000D03*
X136764000Y-111775000D03*
X136764000Y-114315000D03*
X144384000Y-114315000D03*
X144384000Y-111775000D03*
X144384000Y-109235000D03*
X144384000Y-106695000D03*
X144384000Y-104155000D03*
X144384000Y-101615000D03*
X144384000Y-99075000D03*
X144384000Y-96535000D03*
%TD*%
D22*
%TO.C,R26*%
X138922000Y-129921000D03*
X136922000Y-129921000D03*
%TD*%
M02*
